<?xml version="1.0" encoding="UTF-8" standalone="no"?>
<!-- Created with Inkscape (http://www.inkscape.org/) -->

<svg
   version="1.1"
   id="svg1"
   width="1024"
   height="1536"
   viewBox="0 0 1024 1536"
   xmlns="http://www.w3.org/2000/svg"
   xmlns:svg="http://www.w3.org/2000/svg">
  <defs
     id="defs1" />
  <g
     id="g1">
    <path
       style="fill:#000000"
       d="m 846.60734,1366.9295 c -13.52824,-0.9948 -26.64071,-4.0303 -35.38485,-8.1915 -7.97096,-3.7933 -18.6488,-14.0409 -22.06889,-21.1797 -2.10754,-4.399 -2.2696,-5.7587 -1.72839,-14.5 1.46716,-23.6964 3.64036,-40.2991 5.77119,-44.0904 2.05648,-3.659 2.06732,-3.9407 0.52558,-13.6457 -0.86583,-5.4503 -1.87141,-14.4524 -2.23461,-20.0047 -0.6323,-9.6661 -0.56605,-10.1612 1.55879,-11.6495 l 2.21917,-1.5544 -2.53876,-16.8505 c -2.04154,-13.5503 -8.61923,-63.5891 -8.61923,-65.5695 0,-0.2705 -2.92251,-0.7647 -6.49448,-1.0983 -3.57196,-0.3335 -7.34433,-1.0613 -8.38305,-1.6172 -2.18388,-1.1688 -4.2499,-8.2841 -9.74613,-33.5655 -2.0327,-9.35 -4.07394,-17.4275 -4.53608,-17.95 -0.46717,-0.5282 -0.84249,1.4699 -0.84528,4.5 -0.0104,11.3091 -2.99094,39.2949 -4.41671,41.4709 -0.78439,1.1971 -3.42708,2.7368 -5.87263,3.4215 l -4.44647,1.2449 -0.66289,16.6564 c -0.79032,19.8579 -2.15742,40.472 -3.70999,55.9414 -1.01568,10.12 -0.96092,11.4749 0.53038,13.1228 1.436,1.5868 1.64615,4.3909 1.53958,20.5437 -0.10303,15.6175 0.13265,18.9891 1.42734,20.4197 1.13109,1.2499 1.84669,5.7613 2.64436,16.6711 2.79976,38.2926 2.68901,40.5416 -2.23344,45.3542 -4.04435,3.9541 -24.96178,14.2375 -35.79451,17.5972 -36.4329,11.2995 -76.27481,13.1099 -99.25933,4.5103 -10.55496,-3.9491 -17.74066,-12.6246 -17.74066,-21.4188 0,-8.9855 6.77459,-23.0478 14.97547,-31.0853 2.24472,-2.2 15.20603,-12.1 28.80292,-22 l 24.72161,-18 0.78006,-17.5 c 0.68045,-15.2653 1.01689,-17.6916 2.63459,-19 1.77011,-1.4317 1.81713,-3.0478 1.03294,-35.5 -0.45187,-18.7 -0.84994,-37.158 -0.88459,-41.0177 l -0.063,-7.0176 -6.25,-1.6459 c -3.4375,-0.9052 -8.8221,-2.6113 -11.96576,-3.7913 -5.20392,-1.9535 -5.77627,-2.4681 -6.39143,-5.7472 -0.97567,-5.2008 0.0837,-30.257 3.54217,-83.7803 1.67033,-25.8501 3.02595,-48.1251 3.01247,-49.50011 -0.0168,-1.7141 -1.03398,-3.1337 -3.23597,-4.5159 -3.17611,-1.9938 -3.21699,-2.1205 -3.71148,-11.5 l -0.5,-9.4841 -2.86569,8.3508 -2.86568,8.3508 1.74278,17.55531 c 2.09788,21.1324 1.72751,40.9944 -0.8571,45.9635 -4.85089,9.3263 -11.98675,5.9293 -21.45791,-10.215 l -4.6964,-8.0054 -0.33872,5 c -0.18629,2.75 0.2577,8.1501 0.98664,12.0001 0.72895,3.85 1.33137,9.925 1.33872,13.5 0.0208,10.1332 -4.6118,16 -12.63415,16 -2.2555,0 -4.26839,-1.1679 -7.70294,-4.4693 -2.55726,-2.4581 -6.89955,-5.9456 -9.64955,-7.75 -4.34577,-2.8515 -5.64645,-4.573 -9.94049,-13.1571 -4.88153,-9.7586 -4.94559,-10.0099 -5.36865,-21.0623 -0.34553,-9.0271 -0.0299,-12.7607 1.63533,-19.3459 2.55369,-10.0985 7.58253,-21.84111 13.59399,-31.74281 2.98107,-4.9102 4.57982,-8.6911 4.57982,-10.8308 0,-5.0739 4.72848,-40.12171 7.05281,-52.27599 2.83235,-14.81071 6.27452,-28.41684 11.0758,-43.78009 3.3909,-10.8503 3.80366,-13.04418 2.58272,-13.72746 -4.45784,-2.49473 -14.04263,-10.49135 -14.94266,-12.4667 -1.31768,-2.89198 -0.97294,-3.76955 10.76024,-27.39163 17.45572,-35.1431 32.92936,-59.44632 46.54131,-73.09877 18.34728,-18.40186 39.15933,-29.38239 65.92977,-34.78482 7.74515,-1.56302 10.95914,-2.67243 12.25,-4.22847 3.29148,-3.96766 2.6783,-4.43609 -9.06199,-6.92278 -28.09913,-5.95163 -50.14027,-16.39702 -70.48086,-33.4012 -12.73734,-10.64807 -26.06932,-30.64637 -29.83841,-44.75835 l -1.2538,-4.6944 -6.05746,0.5641 c -7.55394,0.70344 -11.00557,-0.64248 -21.06673,-8.21473 -9.2491,-6.96108 -14.69793,-13.16202 -18.41826,-20.96058 -3.76629,-7.89491 -5.07248,-14.57561 -5.07248,-25.94388 0,-14.39091 4.20577,-25.21053 12.26354,-31.54877 l 2.52341,-1.98492 -4.86902,-10.9117 c -5.25556,-11.77796 -8.74601,-22.83961 -11.9906,-37.99964 -2.91458,-13.61807 -3.70248,-39.4754 -1.57444,-51.6695 4.14331,-23.74187 13.71305,-43.06017 29.64534,-59.84459 l 7.50177,-7.903 -4.5,0.7056 c -12.22557,1.91697 -12.9371,1.9279 -13.59676,0.20885 -0.88577,-2.30829 2.88701,-7.66932 12.67175,-18.00622 9.75219,-10.30251 20.12116,-18.81209 35.92501,-29.48284 14.2574,-9.62658 20.63062,-13.12484 39.00188,-21.40812 36.57794,-16.49235 72.38737,-23.53429 113.99606,-22.41736 22.69879,0.60932 34.1673,2.48102 56.65102,9.24566 19.20723,5.77884 28.62828,10.88584 39.82146,21.58659 l 9.52957,9.11033 v -6.1574 c 0,-4.85417 -0.95807,-8.71857 -4.52662,-18.25829 -2.48964,-6.65549 -4.26565,-12.36186 -3.94668,-12.68083 1.05581,-1.05581 9.65835,4.20299 14.03516,8.57979 8.18534,8.18534 13.11843,20.26552 14.94851,36.60599 0.55045,4.91484 0.91337,5.71935 2.32105,5.1453 0.91772,-0.37424 5.54702,-0.91737 10.28735,-1.20696 10.16261,-0.62085 17.00397,0.73101 25.04005,4.94792 11.51302,6.04142 12.82001,9.79489 3.82982,10.99859 -8.67905,1.16204 -16.98864,2.99946 -16.98864,3.75653 0,0.38161 1.95727,2.09944 4.34949,3.8174 6.70462,4.81489 19.05604,16.68303 24.49546,23.53699 16.51274,20.80696 25.0587,47.59077 23.8278,74.67848 -0.56198,12.36737 -2.01762,20.74202 -4.42365,25.45036 l -1.50768,2.95035 -2.31141,-2.68718 -2.31142,-2.68718 -0.51233,4.23683 c -0.28179,2.33025 -0.74012,6.93682 -1.01853,10.23682 -0.74119,8.78556 -4.90939,22.13897 -10.66016,34.15129 -2.77947,5.80582 -4.91273,10.64063 -4.74058,10.74403 7.80064,4.68502 11.11847,8.70832 13.95821,16.92612 3.79666,10.98697 1.5309,29.59597 -5.31814,43.67856 -7.08728,14.57246 -24.55053,27.30238 -39.34999,28.68438 -6.29809,0.58812 -6.74951,0.7987 -7.72775,3.60488 -2.04876,5.87708 -10.79959,22.89543 -14.9089,28.99438 -14.98437,22.23948 -42.76046,39.6549 -80.84042,50.6864 -12.67303,3.67129 -13.67911,4.37569 -11.7933,8.25705 1.3682,2.81598 4.03702,3.69339 17.49857,5.75284 28.98828,4.43486 45.19209,11.9864 62.18701,28.98132 14.63276,14.63277 26.66227,33.33275 44.62019,69.3625 11.56701,23.20741 15.08391,31.67973 14.15511,34.10013 -0.28482,0.74223 -4.31942,3.87898 -8.96579,6.97057 l -8.44793,5.62106 2.30763,6.35745 c 7.00483,19.2981 17.28836,74.5955 19.36427,104.12701 0.71921,10.2314 1.0252,11.41 4.37925,16.8673 8.32082,13.53871 13.69499,31.08601 13.69499,44.71571 0,10.6462 -2.38176,19.0185 -8.13438,28.5937 -5.44425,9.062 -8.30003,11.9556 -13.78571,13.9682 -2.51895,0.9241 -5.92991,2.9031 -7.57991,4.3977 -4.2731,3.8707 -6.79418,4.9575 -11.5,4.9575 -9.93083,0 -10.98552,-2.8163 -10.29766,-27.4973 l 0.5296,-19.0028 -3.1587,4.6723 c -4.44817,6.5796 -10.33433,11.5985 -14.52454,12.3846 -6.89634,1.2938 -8.54352,-2.9681 -8.5248,-22.0569 0.0133,-13.5636 1.93415,-30.3617 4.47393,-39.12491 1.04648,-3.6108 1.20892,-5.9744 0.5498,-8 -0.51453,-1.5813 -3.71829,-12.1001 -7.11945,-23.3751 -3.40116,-11.27497 -6.62696,-20.94997 -7.16845,-21.49997 -0.64908,-0.65928 -0.79023,-0.31857 -0.41426,1 1.16137,4.07309 4.76491,38.52397 4.46508,42.68747 -0.27878,3.8713 -0.70612,4.5172 -4.17652,6.3125 l -3.86597,2 0.59501,14.50001 c 0.32726,7.975 1.92845,29.8 3.55822,48.5001 4.59723,52.749 5.65461,72.1011 4.04545,74.04 -1.72801,2.0822 -7.07035,4.739 -13.96674,6.9458 -3.025,0.968 -5.77619,2.0422 -6.11376,2.3871 -0.33757,0.3449 0.19771,15.9271 1.18951,34.6271 0.99179,18.7 1.83049,38.6734 1.86376,44.3853 0.0568,9.755 0.21224,10.526 2.56049,12.7023 2.49298,2.3104 2.5,2.3688 2.5,20.8056 0,10.6993 0.40338,18.738 0.95744,19.0805 0.52659,0.3254 5.22216,6.0895 10.43459,12.809 5.21243,6.7195 13.12867,16.7173 17.59164,22.2173 4.46296,5.5 9.54903,12.9036 11.30237,16.4525 2.78259,5.6321 3.18864,7.4756 3.19373,14.5 0.007,9.0926 -1.09166,11.858 -7.07963,17.8264 -4.16701,4.1534 -9.43105,6.0777 -20.90014,7.6403 -11.00448,1.4993 -28.99049,1.9808 -41,1.0977 z m 41.5,-8.0036 c 10.07633,-1.5993 10.72431,-1.8324 14.63061,-5.2622 2.93211,-2.5744 6.36939,-7.9971 6.36939,-10.0485 0,-0.1989 -2.61131,0.9327 -5.80291,2.5146 -9.2041,4.5619 -21.25705,6.0835 -43.19709,5.453 -25.0538,-0.7199 -34.62848,-3.1087 -51.16122,-12.7644 -3.87797,-2.2648 -8.80315,-5.8702 -10.94482,-8.0119 l -3.89396,-3.8939 0.004,3.25 c 0.005,4.1228 2.69853,8.5402 8.73555,14.3247 8.16866,7.8271 22.75201,13.3226 40.86553,15.3995 9.31014,1.0675 35.13766,0.5085 44.39518,-0.9609 z m -234.22077,-4.0312 c 25.07924,-1.9132 49.31403,-8.3236 68.27235,-18.0589 13.18003,-6.7681 13.94842,-7.5988 13.94842,-15.0785 v -6.0775 l -3.86538,3.4922 c -10.59375,9.5708 -37.1892,19.3902 -62.87803,23.2153 -11.92943,1.7763 -35.70371,1.9993 -46.91463,0.44 -10.27961,-1.4298 -21.55491,-5.077 -25.86999,-8.3683 l -3.47196,-2.6482 v 4.0161 c 0,4.7717 4.07741,10.0642 10.134,13.154 6.2562,3.1917 19.466,5.729 35.366,6.793 1.1,0.074 7.97565,-0.322 15.27922,-0.8792 z m 229.62007,-9.9538 c 11.01072,-1.1582 18.09266,-3.3304 22.42757,-6.8789 l 3.32686,-2.7234 -1.96909,-5.1822 c -2.50349,-6.5886 -7.35964,-13.1986 -15.16932,-20.6478 l -6.16192,-5.8775 -12.6767,0.5643 c -24.99744,1.1128 -40.63954,7.98 -45.67497,20.0522 -0.8798,2.1093 -1.94151,6.6748 -2.35936,10.1457 l -0.75973,6.3106 7.05868,1.6568 c 3.88227,0.9113 9.30868,2.0303 12.05868,2.4867 6.98795,1.1599 29.2654,1.2121 39.8993,0.094 z m -225.39929,-7.0426 c 5.225,-0.5388 10.79181,-1.2537 12.37069,-1.5887 l 2.8707,-0.609 -0.70124,-9.144 c -0.38953,-5.0794 -1.49403,-10.9531 -2.48478,-13.2139 -2.5292,-5.7714 -8.27104,-10.9332 -16.91213,-15.2039 -6.83889,-3.38 -8.30263,-3.7172 -17.55217,-4.0442 l -10.09107,-0.3567 -6.5,4.3337 c -11.69675,7.7984 -23.95847,22.1455 -23.99062,28.0707 -0.0144,2.6525 9.0694,7.2819 18.12968,9.2395 6.64942,1.4367 17.91404,2.5907 32.86094,3.3664 1.375,0.071 6.775,-0.3111 12,-0.8499 z m 163.48706,-3.7357 c 1.62003,-12.6231 5.45931,-20.053 13.06646,-25.2869 9.14353,-6.2909 26.35872,-10.4385 40.6988,-9.8054 4.26378,0.1883 7.75128,0.089 7.75,-0.2206 -0.008,-1.8642 -6.37568,-6.0221 -11.46705,-7.4873 -11.10734,-3.1966 -30.12659,0.051 -36.26805,6.192 -1.91242,1.9125 -2.2369,3.0029 -1.71743,5.772 0.52417,2.794 0.27191,3.6112 -1.38919,4.5002 -5.71171,3.0568 -12.44327,-5.7803 -9.12543,-11.9798 1.3283,-2.4819 2.96482,-2.4908 2.96482,-0.016 0,2.6126 1.02374,5.0818 2.10699,5.0818 0.49115,0 0.89301,-0.8118 0.89301,-1.8039 0,-0.9921 1.4625,-3.2142 3.25,-4.938 6.60585,-6.3705 19.75068,-9.9401 32.87636,-8.9279 l 7.99408,0.6165 -2.31022,-4.1639 c -3.34303,-6.0254 -9.20101,-8.0241 -21.31022,-7.2708 -15.95647,0.9926 -27.55334,4.9062 -34.31476,11.5801 l -3.31476,3.2718 -6.91414,-2.0361 c -6.23154,-1.8351 -6.96291,-1.8778 -7.40813,-0.432 -0.2717,0.8823 -0.98798,7.8685 -1.59173,15.525 -1.34025,16.9962 -0.56037,19.7951 7.37349,26.4623 4.80796,4.0403 14.86685,10.1169 16.74713,10.1169 0.44019,0 1.07468,-2.1375 1.40997,-4.75 z m -120.48707,-5.1916 c 13.04645,-3.3977 23.61873,-8.7895 29.36004,-14.9733 4.18146,-4.5038 4.7769,-5.6504 4.26459,-8.212 -0.3275,-1.6375 -0.89467,-7.9038 -1.26039,-13.9252 -0.36571,-6.0214 -0.93477,-10.9395 -1.26458,-10.9292 -0.32982,0.01 -4.8509,1.1353 -10.04686,2.5 -5.19596,1.3647 -11.65484,2.4813 -14.35307,2.4813 -4.36228,0 -5.43048,-0.4709 -9.64038,-4.25 -8.45465,-7.5895 -20.22349,-11.6943 -33.6379,-11.7327 -5.08816,-0.014 -6.81133,0.468 -10.57598,2.9616 -2.47358,1.6385 -5.22065,3.776 -6.10458,4.75 -1.52728,1.6831 -1.21367,1.7549 6.30987,1.4454 11.17574,-0.4596 17.38552,1.5438 24.26058,7.8272 4.99855,4.5684 5.50428,4.8116 6.00729,2.8881 0.84203,-3.22 3.14387,-1.6752 3.48587,2.3393 0.5647,6.6287 -4.22871,13.981 -7.71162,11.8285 -1.00238,-0.6195 -1.04027,-1.2872 -0.16577,-2.9212 2.44347,-4.5657 -4.0853,-11.5469 -13.72665,-14.6778 -6.1479,-1.9965 -22.56842,-1.6325 -27.70045,0.6141 l -3,1.3133 3,0.3718 c 10.79304,1.3376 21.98452,5.975 28.39404,11.7656 6.26104,5.6565 11.08153,18.9445 11.10017,30.5985 l 0.006,3.6217 7.25,-1.7357 c 3.98749,-0.9546 11.07499,-2.7318 15.74999,-3.9493 z m 113.06474,-48.6364 c 2.0385,-2.4563 10.054,-6.176 18.62594,-8.6438 6.17464,-1.7776 10.37356,-2.2514 20.05943,-2.2632 l 12.25011,-0.015 -1.1e-4,-13.25 c -6e-5,-7.2875 -0.11278,-13.25 -0.25049,-13.25 -0.1377,0 -3.4002,0.7028 -7.25,1.5619 -10.4947,2.3417 -43.00346,3.055 -51.99962,1.1409 -3.85,-0.8192 -7.19451,-1.3054 -7.43224,-1.0805 -0.23773,0.2248 0.41788,6.5893 1.4569,14.1432 1.93753,14.0862 2.12719,16.6881 1.39639,19.1569 -0.27908,0.9428 0.92767,1.8441 3.57895,2.6731 5.51022,1.723 8.02868,1.6773 9.56474,-0.1735 z m -92.29163,-3.415 8.27312,-2.2386 -0.27312,-17.1342 c -0.26279,-16.4869 -0.34867,-17.1234 -2.27311,-16.8467 -1.1,0.1581 -10.1,0.5524 -20,0.8761 -19.17328,0.6269 -28.74624,-0.515 -39.99999,-4.7715 -2.75,-1.0401 -5.1125,-1.8913 -5.25,-1.8916 -0.1375,-3e-4 -0.25,6.7495 -0.25,14.9995 v 15 h 6.7899 c 11.60429,0 24.40049,4.5524 33.71009,11.9927 4.58369,3.6633 5.78386,3.6642 19.27311,0.014 z m 123.72689,-36.0381 c 4.95,-0.558 10.52705,-1.5105 12.39345,-2.1167 l 3.39345,-1.102 -0.57159,-13.6251 c -1.16687,-27.8146 -3.9605,-78.6394 -4.34539,-79.0559 -0.21894,-0.2369 -4.55424,0.3511 -9.634,1.3066 -13.03419,2.4518 -26.04954,3.5657 -42.03123,3.5971 l -13.79532,0.027 0.55587,3.25 c 0.30573,1.7875 1.6763,13.15 3.04571,25.25 3.42639,30.2752 7.53505,59.8352 8.4527,60.8133 2.30511,2.4571 26.9266,3.4154 42.53635,1.6556 z m -126,-5.8431 7,-0.6258 0.69127,-6.5 c 0.77517,-7.2888 3.37605,-46.6327 4.39616,-66.5013 l 0.66753,-13.0014 h -23.87748 c -15.36688,8e-4 -27.18118,-0.4969 -33.14642,-1.3964 -5.09792,-0.7688 -9.37292,-1.2188 -9.5,-1 -0.12708,0.2187 -0.087,18.9897 0.0892,41.7133 l 0.32021,41.3156 4.67979,2.0413 c 9.65244,4.2102 28.5968,5.7487 48.67977,3.9533 z m 123,-95.1528 c 14.26872,-2.2858 24.93415,-5.1459 31.39132,-8.418 l 4.71405,-2.3887 -0.34728,-6.8332 c -0.54342,-10.6922 -4.09442,-53.7766 -6.25014,-75.8332 -1.0751,-11 -2.26124,-26.2089 -2.63586,-33.7977 -0.57059,-11.5584 -0.92003,-13.70601 -2.1532,-13.23281 -3.00826,1.15441 -25.67776,6.65841 -33.06748,8.02851 -52.87144,9.8032 -124.56982,7.7855 -174.3266,-4.9057 l -12.67519,-3.23301 -0.57817,8.07041 c -2.45234,34.2309 -6.5866,105.9527 -6.5798,114.1473 l 0.008,10.0769 7.75,2.6596 c 15.50575,5.3211 43.25522,8.3416 67.24999,7.3201 11.93627,-0.5081 27.29809,-2.5983 28.58977,-3.89 0.51105,-0.511 3.26915,-35.2467 4.38647,-55.2435 0.5839,-10.45 1.16561,-20.7672 1.29269,-22.9272 0.22772,-3.8702 0.16588,-3.944 -4.26893,-5.0915 -5.38598,-1.3937 -12.13631,-4.7357 -13.92952,-6.8964 -1.07969,-1.301 -1.01957,-1.6673 0.36058,-2.1969 1.88957,-0.7251 4.45522,-0.2808 17.06894,2.9554 l 9,2.3092 0.71944,4.9237 c 0.39569,2.708 1.87048,13.4737 3.27731,23.9237 3.21943,23.9142 9.41324,59.7145 10.5346,60.8902 1.29991,1.3629 25.634,2.4744 42.96865,1.9627 8.525,-0.2517 20.9,-1.3226 27.5,-2.3799 z m 88.8211,-62.2415 c 5.49515,-5.4951 7.46156,-12.0584 8.73611,-29.1586 0.52993,-7.1099 1.14739,-13.1109 1.37213,-13.3356 0.22474,-0.2248 1.00758,0.6424 1.73964,1.927 1.54091,2.704 1.85974,23.6409 0.46802,30.7342 l -0.86299,4.3986 2.9777,-2.1203 c 4.97159,-3.5401 7.47187,-10.9526 8.15498,-24.1769 0.54644,-10.5784 0.70748,-11.3001 2.00961,-9.0057 0.77856,1.3719 1.97566,4.5219 2.66021,7 l 1.24465,4.5057 0.0894,-5.7921 c 0.17511,-11.3429 -4.16505,-27.6991 -11.59793,-43.70791 -4.11014,-8.8522 -4.58063,-10.7613 -6.90063,-28 -3.26059,-24.22759 -7.86187,-51.77662 -10.93992,-65.49997 -2.00991,-8.96109 -9.38744,-37.50905 -9.86591,-38.17695 -0.0697,-0.0973 -3.27213,1.36554 -7.11648,3.25081 -8.1183,3.98122 -25.23387,9.71413 -34.23971,11.4687 -3.4375,0.66971 -6.25,1.66503 -6.25,2.21182 0,2.57269 9.69943,38.99023 16.84482,63.24562 4.37465,14.84997 8.94339,30.61617 10.15274,35.03587 l 2.19884,8.0359 -2.53218,11.46411 c -1.39269,6.3053 -3.06806,15.8565 -3.72303,21.225 -1.33647,10.9543 -0.88354,26.1968 0.82934,27.9097 2.16267,2.1627 6.04062,-1.894 10.2585,-10.7314 4.8992,-10.2648 7.19729,-12.9236 9.9138,-11.4698 4.42792,2.3698 6.12181,14.6977 4.80209,34.9491 -0.93968,14.4196 -0.8868,15.5047 0.81628,16.75 2.85124,2.0849 4.18547,1.6375 8.7599,-2.9369 z m -336.27764,-4.4815 c 2.35699,-2.9616 2.34325,-1.8479 0.34229,-27.7501 -0.7141,-9.2438 0.54266,-15.1569 4.08792,-19.234 3.5666,-4.1016 5.33343,-2.3191 10.24991,10.3409 2.95569,7.611 5.17526,11.7479 7.36644,13.7301 3.70412,3.3507 4.79261,2.7111 5.96719,-3.5065 0.90432,-4.787 -0.37162,-33.2523 -1.99527,-44.5133 -1.47819,-10.25201 -0.76371,-13.41371 11.93582,-52.81718 3.72223,-11.54911 5.20147,-18.10579 6.42988,-28.5 0.8775,-7.425 2.19164,-18.58144 2.9203,-24.7921 0.72866,-6.21065 0.98165,-11.5042 0.56219,-11.76344 -0.41946,-0.25924 -4.28333,-1.64921 -8.58639,-3.08883 -4.30305,-1.43961 -12.28102,-4.58877 -17.72881,-6.99814 -5.4478,-2.40936 -10.01434,-4.26294 -10.14787,-4.11907 -0.13353,0.14387 -1.84031,5.43658 -3.79283,11.76158 -7.44098,24.10427 -11.94192,45.77348 -16.20147,78 l -2.7096,20.49997 -5.87177,11.6937 c -3.22947,6.4315 -7.32875,15.88151 -9.1095,21.00001 -3.02309,8.6894 -3.23458,10.1682 -3.19012,22.3063 0.0532,14.5229 2.0294,21.9474 7.07632,26.5854 l 2.62763,2.4147 -0.66175,-4.5 c -0.36396,-2.475 -0.93625,-8.7934 -1.27174,-14.0408 -0.4979,-7.7875 -0.30502,-10.1305 1.04957,-12.75 2.79479,-5.4045 3.63045,-3.8564 2.99078,5.5407 -0.9236,13.5683 3.58462,29.5203 9.82723,34.7732 3.76087,3.1645 5.13592,3.1166 7.83365,-0.2731 z m 197.14904,-68.7319 c 31.31009,-2.2167 55.093,-6.21101 75.0575,-12.60601 9.63038,-3.0847 9.75,-3.162 9.75,-6.2981 0,-8.6674 -8.24395,-80.57339 -15.14676,-132.11407 -4.20815,-31.42068 -6.12838,-59.99029 -3.88973,-57.87226 0.65558,0.62026 1.59981,2.87026 2.0983,5 0.91645,3.91545 10.93819,72.03411 10.93819,74.34784 0,1.61999 6.36501,0.70436 17.95636,-2.5831 9.5308,-2.70307 35.95456,-15.45875 43.31582,-20.91009 l 4.77218,-3.53401 -13.00109,-25.72419 c -30.15236,-59.66001 -48.60917,-80.48427 -81.18526,-91.59888 -6.57839,-2.24448 -20.28489,-5.62531 -22.80604,-5.62531 -0.4495,0 -2.06786,2.55612 -3.59636,5.68027 -3.33727,6.82112 -13.04508,16.78012 -19.99079,20.50803 -18.69506,10.03404 -50.19402,11.55778 -68.28284,3.30312 -11.07396,-5.05349 -19.15197,-15.89937 -19.17221,-25.74142 -0.005,-2.6125 -0.34727,-4.74886 -0.75977,-4.74747 -0.4125,0.001 -5.025,1.14669 -10.25,2.54512 -11.31485,3.02832 -27.72714,10.65493 -36.68488,17.04704 -13.70122,9.77698 -29.14455,28.82425 -45.5411,56.16881 -8.0478,13.42133 -24.80809,46.26445 -24.72546,48.45148 0.0836,2.21269 10.55361,10.06358 20.70828,15.52803 10.17603,5.47595 26.49789,12.26516 29.47412,12.26 2.20809,-0.004 1.93968,1.37001 7.32693,-37.50301 2.51533,-18.15 5.21057,-36.375 5.98942,-40.5 1.47421,-7.80781 4.15414,-15 5.58924,-15 1.0346,0 0.53444,5.4309 -3.6838,40 -5.33065,43.68544 -10.1691,88.81246 -13.40232,125 -1.6462,18.42497 -3.22787,35.13477 -3.51483,37.13277 l -0.52173,3.6327 9.74307,3.094 c 36.49855,11.59031 90.81667,16.38411 143.43556,12.65871 z M 776.49329,751.94169 c 9.57542,-2.44898 19.11889,-6.94047 24.78598,-11.66514 4.85669,-4.04904 12.0664,-13.14904 11.57815,-14.61379 -0.17545,-0.52635 -2.54308,-1.69798 -5.2614,-2.60362 -5.58527,-1.86079 -9.48868,-6.51492 -9.48868,-11.31355 0,-2.46177 -0.32083,-2.79854 -2.25,-2.36178 -12.31774,2.7887 -39.32351,3.2774 -57.28801,1.0367 -6.5791,-0.8206 -12.07449,-1.4956 -12.21199,-1.5 -0.1375,-0.004 -0.26431,1.67951 -0.28181,3.74201 -0.0403,4.7495 -1.82187,7.09326 -6.6466,8.7439 -3.40818,1.166 -3.85607,1.71188 -4.14026,5.04612 -0.70518,8.27319 7.68757,19.61353 17.45804,23.58944 10.17666,4.1412 31.38198,5.06205 43.74658,1.89971 z m 9.47142,-48.04944 c 28.80052,-3.03357 59.53839,-13.5088 77.64263,-26.46 25.17459,-18.0091 40.65105,-42.61511 47.18521,-75.01973 2.5926,-12.85736 2.69153,-74.07804 0.13817,-85.5 -1.95574,-8.74861 -2.46594,-11.74243 -3.80205,-22.30999 l -0.98745,-7.80999 -8.26694,-9.01305 c -16.81369,-18.33117 -24.89169,-33.30249 -29.17687,-54.07481 -0.87454,-4.23931 -1.60516,-9.18931 -1.6236,-11 l -0.0335,-3.29216 -3.14877,4 c -13.46788,17.10878 -32.92108,29.9063 -58.43168,38.44002 -9.84469,3.29321 -16.73313,3.84403 -19.72634,1.57738 -1.81087,-1.37131 -1.78331,-1.56351 0.82009,-5.7182 1.48168,-2.36456 5.33981,-8.1093 8.57363,-12.76609 3.23381,-4.6568 5.73114,-8.61543 5.54961,-8.79696 -0.18154,-0.18153 -2.29643,0.98884 -4.69977,2.60083 -24.92249,16.71626 -66.80538,32.1268 -80.74606,29.70999 -10.44007,-1.80993 -11.64142,-4.91163 -5.05334,-13.04697 3.59105,-4.43442 12.05167,-16.42563 14.46416,-20.5 0.75383,-1.2731 0.51586,-1.26003 -1.57315,0.0864 -8.79261,5.667 -27.03066,15.92305 -42.46344,23.87903 -13.89741,7.16446 -19.14172,9.37615 -23,9.69983 -6.13311,0.51452 -9.8824,-1.22651 -10.29926,-4.78258 -0.30507,-2.60248 1.09204,-4.69232 13.56826,-20.29566 2.89678,-3.62285 4.92178,-6.58267 4.5,-6.57738 -2.08789,0.0262 -15.05402,11.07573 -24.64021,20.99803 -20.54307,21.26337 -28.82063,38.85949 -33.16069,70.4917 -0.98735,7.19627 -1.45625,15.40198 -1.17143,20.5 3.58382,64.14722 5.34284,75.46069 14.67777,94.40302 14.74814,29.92672 40.68962,50.59085 76.65559,61.06135 8.60088,2.5039 41.76669,9.03003 49.87209,9.81346 8.38678,0.81062 29.38318,0.64781 38.35737,-0.29745 z m -43.2909,-50.51738 c -9.68946,-2.44843 -19.98998,-7.99151 -26.95129,-14.50348 -3.50352,-3.27737 -7.08437,-5.95887 -7.95743,-5.95887 -3.45459,0 -4.43996,-7.14832 -1.27297,-9.23468 2.12555,-1.40028 3.21937,-0.74892 4.44797,2.64871 1.84923,5.11396 8.32533,10.31111 19.05519,15.29205 13.83409,6.42196 19.48027,7.65454 32.11206,7.01019 11.70254,-0.59696 20.5315,-2.95005 31.18423,-8.31122 8.2676,-4.1608 17.21799,-12.63533 18.11835,-17.15505 0.46406,-2.32956 1.19776,-3.25 2.59063,-3.25 2.85385,0 5.10679,1.05021 5.10679,2.38054 0,0.6416 -3.55607,5.23234 -7.90237,10.20165 -8.94394,10.22597 -13.8713,13.35532 -29.1477,18.51167 -8.11304,2.73845 -11.14758,3.23767 -21.44993,3.52876 -8.36398,0.23633 -13.79787,-0.11523 -17.93353,-1.16027 z m 0.0885,-56.29109 c -2.26022,-2.49751 -2.09091,-8.94403 0.33961,-12.9304 3.07471,-5.04293 7.4943,-7.23276 14.60617,-7.23712 7.90329,-0.005 12.09966,1.51628 13.92595,5.04793 2.06352,3.99042 0.52303,4.43853 -6.48022,1.88502 -6.79609,-2.47798 -11.26421,-2.12648 -15.51973,1.22092 -3.84729,3.02627 -4.85462,6.30773 -3.02339,9.84894 0.82314,1.59177 1.49662,3.14148 1.49662,3.44379 0,1.30786 -3.83424,0.39031 -5.34501,-1.27908 z m -68.15498,-15.58861 c -10.65351,-4.75528 -16.55278,-23.5187 -11.55585,-36.75492 3.97736,-10.53555 12.34117,-15.45739 22.01706,-12.95637 8.95322,2.31423 13.34228,10.14741 13.2395,23.62864 -0.093,12.19437 -4.75974,22.48722 -11.60526,25.59612 -4.82644,2.19194 -7.98967,2.31918 -12.09545,0.48653 z m 12.27748,-33.13935 c 2.90512,-2.03482 2.82473,-5.52891 -0.19242,-8.36337 -2.90388,-2.72807 -5.77463,-2.15404 -7.4333,1.48635 -1.53748,3.3744 -1.45632,4.43971 0.50323,6.60498 2.02576,2.23844 4.19669,2.32136 7.12249,0.27204 z M 829.029,578.63873 c -7.25975,-4.89235 -10.39845,-12.89531 -9.69742,-24.72621 0.51611,-8.71014 2.88016,-14.12847 8.20369,-18.8026 6.69288,-5.87642 14.83053,-6.21856 22.58402,-0.94952 7.4273,5.04736 10.2212,18.78121 6.06867,29.83147 -2.3472,6.24611 -7.82364,13.21927 -12.13135,15.44688 -4.31833,2.23309 -11.0593,1.87422 -15.02761,-0.80002 z m 17.24958,-30.38119 c 2.63141,-2.3814 2.35731,-6.95258 -0.53036,-8.84465 -2.86582,-1.87775 -4.9999,-1.20263 -6.48221,2.05068 -2.52729,5.54681 2.7457,10.65543 7.01257,6.79397 z m 15.26295,-54.67645 c -6.66861,-7.14301 -17.24318,-9.42643 -29.07028,-6.27726 -7.78132,2.0719 -9.92143,-0.50029 -3.27563,-3.93697 7.86536,-4.06733 21.39117,-3.80119 29.99917,0.59029 5.85622,2.98762 11.12166,8.45237 10.73981,11.14634 -0.55321,3.90297 -3.89371,3.29705 -8.39307,-1.5224 z M 653.4168,495.2766 c -0.84338,-2.19781 0.56339,-4.23725 5.57929,-8.08844 9.69263,-7.44197 27.92569,-8.55637 34.77136,-2.1252 3.41351,3.20683 2.90138,4.13742 -1.91013,3.4709 -13.7567,-1.90567 -18.37054,-1.88277 -22.88355,0.11355 -2.45743,1.08703 -6.0796,3.39138 -8.04926,5.12077 -3.96059,3.47744 -6.55231,3.99816 -7.50771,1.50842 z m -48.36914,120.98803 c 0.24218,-0.21968 -0.33381,-6.12628 -1.27997,-13.12577 -0.94616,-6.99948 -2.00052,-15.80275 -2.34301,-19.5628 -0.58641,-6.43789 -0.9085,-7.14917 -5.52462,-12.19994 -5.21081,-5.70146 -5.65343,-5.93675 -13.06209,-6.94371 -5.50261,-0.7479 -5.36956,-2.00148 0.37667,-3.54878 5.19486,-1.39883 9.30738,-0.0819 14.01089,4.48661 l 3.54534,3.44357 -0.37267,-8.20064 c -0.60849,-13.38975 -0.85019,-14.1406 -5.56414,-17.28569 -3.16966,-2.11476 -5.75076,-2.92107 -10.32058,-3.22404 -5.74853,-0.38113 -6.31048,-0.21382 -9.91679,2.95253 -4.94012,4.33743 -7.06812,9.31803 -8.56349,20.04288 -2.74953,19.71971 4.16865,34.85613 21.62429,47.31222 9.43276,6.73108 14.53103,8.44716 17.39017,5.85356 z m 326.1753,-5.03218 c 8.99734,-4.48392 18.40686,-13.52335 22.1928,-21.31993 9.61467,-19.79995 8.51471,-42.45627 -2.4123,-49.68742 -3.33535,-2.20723 -4.67943,-2.4963 -9.86349,-2.12132 -6.76869,0.4896 -10.99713,3.19312 -16.78265,10.73026 -3.15299,4.10758 -3.24972,4.52269 -3.24054,13.90622 l 0.009,9.67226 2.45327,-4.09244 c 4.19331,-6.99514 15.43252,-12.65222 21.9079,-11.02701 3.85756,0.96819 2.74684,2.95708 -2.11493,3.78704 -5.03896,0.86022 -11.05067,3.87179 -13.96435,6.99546 -3.98102,4.26793 -9.30081,15.69196 -9.30081,19.9731 0,2.19495 -0.73871,8.73382 -1.64158,14.53082 -1.39611,8.96393 -1.43349,10.67177 -0.25,11.4212 2.52301,1.59768 5.53138,0.95742 13.00722,-2.76824 z m 2.19946,-78.25034 c 1.5483,-0.58827 3.84106,-1.06959 5.09501,-1.06959 3.04335,0 4.68303,-2.0069 9.39568,-11.5 8.06886,-16.25375 12.88369,-37.07802 11.79185,-51 -0.34507,-4.4 -1.52071,-12.0272 -2.61252,-16.94934 -1.09182,-4.92214 -1.98512,-9.16883 -1.98512,-9.43709 0,-2.2645 13.25691,14.21481 15.59558,19.38643 0.59353,1.31251 0.99895,-3.82052 1.17942,-14.93257 0.23179,-14.27153 -0.0403,-18.17929 -1.73108,-24.86558 -2.62835,-10.39371 -7.5968,-21.74099 -14.20214,-32.43579 -7.5817,-12.27564 -25.49283,-30.28215 -37.09178,-37.28929 -4.8125,-2.90732 -8.75,-5.68245 -8.75,-6.16694 0,-1.51924 8.83239,-4.74923 17.81053,-6.51328 l 8.62355,-1.69438 -4.46704,-2.02695 c -5.51752,-2.50361 -20.18091,-2.68627 -29.69384,-0.36989 -7.30975,1.77991 -7.01011,2.14593 -7.17645,-8.76611 -0.12627,-8.28316 -2.14918,-16.75176 -5.69813,-23.85429 -3.778,-7.56093 -4.39676,-7.54674 -2.28955,0.0525 1.04001,3.75061 1.86344,9.30403 1.82984,12.34093 -0.0713,6.44342 -2.95326,16.33705 -4.443,15.25258 -0.55225,-0.40201 -3.63171,-4.02137 -6.84325,-8.043 -6.72469,-8.42096 -18.19348,-17.91775 -27.0179,-22.37231 -8.16791,-4.12314 -29.78146,-11.13568 -42.13476,-13.67066 -23.27411,-4.77601 -42.42081,-5.07129 -73.13307,-1.12788 -19.75574,2.53661 -31.75174,5.15429 -47.89884,10.45214 -32.92547,10.80281 -64.26128,28.93445 -89.69317,51.89858 -5.85405,5.286 -10.9248,10.0657 -11.26834,10.62155 -0.404,0.6537 2.72259,1.01064 8.85262,1.01064 14.69128,0 15.81401,1.20383 6.99473,7.5 -15.35204,10.95998 -30.39102,32.54142 -37.28137,53.5 -9.237,28.09652 -5.12136,67.22851 10.63528,101.12142 l 4.47295,9.62141 4.84122,0.57337 c 2.66267,0.31536 6.67199,1.50737 8.90961,2.64891 2.23761,1.14155 4.06839,1.8776 4.06839,1.63566 0,-0.24193 -2.05578,-6.65588 -4.56841,-14.25322 -7.62387,-23.05207 -9.4097,-33.17524 -9.56943,-54.24541 -0.0981,-12.93757 1.43594,-25.55031 3.24342,-26.66739 1.27713,-0.78931 1.71684,2.75731 2.33525,18.8355 0.81948,21.3056 5.42923,50.08102 9.64868,60.22975 1.23167,2.96247 1.25681,2.92285 2.00916,-3.16672 2.06231,-16.69246 8.6399,-37.1355 15.89914,-49.41428 10.99916,-18.60473 36.26913,-42.88939 58.71105,-56.42181 9.82634,-5.92526 10.00263,-5.07659 1.76623,8.50281 -2.83555,4.675 -6.98222,11.65 -9.2148,15.5 -2.23259,3.85 -6.01099,9.21506 -8.39646,11.92234 l -4.3372,4.92234 3.48668,-0.6661 c 4.70592,-0.89901 27.84207,-12.27966 41.98668,-20.65319 6.325,-3.74437 16.58802,-10.67969 22.80672,-15.41184 12.03094,-9.15499 15.0442,-11.09596 15.89896,-10.24119 2.24731,2.2473 -7.8407,23.51625 -17.45568,36.8025 -3.4375,4.75003 -6.25,8.96603 -6.25,9.36888 0,1.14313 12.65331,-0.42565 21.5,-2.6656 9.32854,-2.36195 28.75943,-10.28141 39.5,-16.09903 11.76156,-6.37064 26.07692,-16.17014 30.95821,-21.19226 4.46705,-4.59594 7.04179,-5.7749 7.04179,-3.22438 0,4.29986 -9.13002,22.64607 -16.67399,33.50534 -2.43305,3.50229 -4.17483,6.61671 -3.87062,6.92092 0.69084,0.69084 19.35854,-6.81223 30.04461,-12.07576 14.86056,-7.31972 27.57924,-17.85581 36.54212,-30.27131 3.26296,-4.5199 6.60875,-8.47744 7.43507,-8.79453 1.7327,-0.6649 1.87045,-0.19944 3.99764,13.50883 3.78835,24.4133 13.70587,44.51183 30.93493,62.69173 4.72463,4.98538 8.59024,9.33918 8.59024,9.6751 0,1.34303 4.06252,26.44848 5.41723,33.47721 0.79505,4.125 1.76084,11.40722 2.14621,16.18269 l 0.70067,8.68269 5.11795,-3.8631 c 2.81486,-2.12471 6.38473,-4.34442 7.93304,-4.93269 z m -760.3151,825.33719 c -16.69497,-2.8719 -21.49603,-4.6066 -26.86924,-9.7079 -4.39025,-4.1682 -6.13205,-8.41 -6.12518,-14.9167 0.008,-7.6045 1.46976,-11.8552 6.78916,-19.7424 6.11919,-9.0732 28.06675,-33.1154 35.0285,-38.3715 l 5.43167,-4.101 -0.63666,-8.5336 c -0.35016,-4.6935 -0.92512,-36.9584 -1.27769,-71.6998 l -0.64103,-63.1662 -6.59977,-1.6209 c -26.3167,-6.4638 -51.822,-16.6602 -61.14719,-24.4452 l -3.39206,-2.8318 1.79209,-9.3849 c 0.98565,-5.1616 3.62979,-17.3718 5.87587,-27.1336 3.80892,-16.5542 3.97306,-17.8711 2.4389,-19.5663 -0.90469,-0.9997 -2.29323,-3.5877 -3.08566,-5.7513 -0.79244,-2.1635 -1.4725,-3.455 -1.51125,-2.8701 -0.35203,5.3137 -3.18523,23.6081 -3.97973,25.6978 -1.64796,4.3345 -4.72437,6.7387 -8.62285,6.7387 -4.57526,0 -10.012837,-2.2985 -11.653837,-4.9262 -0.97849,-1.5668 -2.328,-2.0738 -5.51979,-2.0738 -3.33614,0 -4.99942,-0.6803 -7.90841,-3.2344 -3.9375,-3.4572 -6.38584,-8.1377 -6.38584,-12.2079 0,-1.7473 -0.86778,-2.9551 -2.86515,-3.988 -8.84919,-4.5761 -7.99047,-23.2024 1.76538,-38.2925 3.53293,-5.46471 8.53296,-11.87971 22.86185,-29.33171 l 6.202527,-7.5544 4.5904,-17.94558 c 10.26506,-40.12997 17.87275,-65.07744 27.6155,-90.55797 l 5.96956,-15.61239 -6.09522,-5.81385 c -3.35237,-3.19762 -6.3302,-6.75011 -6.61741,-7.89443 -0.99768,-3.9751 8.99459,-26.09285 18.82955,-41.67893 l 5.43424,-8.61198 -8.59562,-0.58006 c -20.85826,-1.40758 -37.71274,-12.72888 -46.750807,-31.40294 l -3.77176,-7.79304 -0.59399,3.53397 c -1.27049,7.55893 -3.13131,7.71034 -12.08655,0.98349 -7.76869,-5.83555 -13.2395,-12.66254 -18.44505,-23.01746 -3.13789,-6.24191 -3.84975,-8.81827 -4.24368,-15.35879 -0.92975,-15.43661 3.27206,-25.60736 19.38568,-46.92428 12.55608,-16.61062 16.57886,-24.2812 19.1624,-36.53862 l 1.95488,-9.27479 -3.41376,-4.47087 c -8.70293,-11.39788 -11.94304,-22.72137 -10.98784,-38.40021 0.68921,-11.31287 3.24848,-19.64913 7.75338,-25.25486 l 3.06735,-3.81691 -1.68682,-17.23033 c -4.53268,-46.30009 2.33186,-84.50201 20.813987,-115.83208 12.60827,-21.37296 29.02764,-40.6289 48.6459,-57.04982 9.65958,-8.08528 31.45469,-21.8443 42.60109,-26.89361 22.00001,-9.96599 58.66826,-17.50378 90.5,-18.60384 41.66337,-1.43982 88.61701,9.44979 110.4376,25.61299 2.78432,2.06243 8.31512,7.18031 12.29066,11.37307 6.01874,6.34761 8.02672,7.82351 12,8.82025 12.17189,3.05343 21.3682,7.78323 31.91183,16.41271 22.05604,18.05186 36.66723,45.59643 43.99075,82.92999 1.33866,6.82419 1.77145,14.0769 1.79021,30 0.0267,22.69243 -1.55815,35.57595 -7.05044,57.31309 l -2.60579,10.31308 3.12112,6.18692 c 4.09996,8.12726 5.39341,15.77737 4.93481,29.18691 -0.36128,10.56373 -0.5333,11.29622 -4.33724,18.46866 -2.17857,4.10777 -6.6144,10.30511 -9.85738,13.77187 l -5.89634,6.30321 0.61571,5.22813 c 0.58018,4.92637 5.54624,20.82005 9.02364,28.87977 0.86653,2.00841 4.52143,8.50968 8.122,14.44728 14.43905,23.81103 15.83733,42.53357 4.87382,65.25905 -3.63036,7.52511 -6.01784,10.87341 -12.18977,17.09538 -12.14944,12.24794 -14.52352,11.85592 -13.39114,-2.21117 0.427,-5.30449 0.4569,-10.454 0.0664,-11.44335 -0.5559,-1.40856 -0.72517,-1.21033 -0.78021,0.91366 -0.18412,7.10569 -6.4879,19.0309 -13.72802,25.97006 -7.31839,7.01418 -14.98647,9.77813 -33.61983,12.11824 l -9.61611,1.20765 3.88888,6.11647 c 9.29806,14.6241 22.0048,41.25023 22.0048,46.1096 0,0.92886 -2.49588,4.01166 -5.54641,6.85065 l -5.5464,5.16181 4.10497,12.37652 c 9.23182,27.83402 14.40737,47.29054 24.53648,92.24028 l 5.37753,23.8638 8.90735,9.2074 c 11.011,11.3819 16.63016,18.938 21.67268,29.14331 5.41231,10.9537 5.83411,17.2167 1.73099,25.702 -1.65417,3.4209 -3.78405,8.6233 -4.73306,11.561 -2.54978,7.8929 -9.74968,15.1588 -15.02118,15.1588 -0.88901,0 -3.14452,1.1655 -5.01224,2.5901 -4.57354,3.4884 -10.81382,4.3114 -13.60792,1.7946 -3.21171,-2.893 -3.97569,-5.8829 -4.85247,-18.9905 -0.55241,-8.2584 -1.36742,-13.1841 -2.56444,-15.4989 l -1.75467,-3.3932 -2.15054,7.9989 c -2.30688,8.5805 -4.79561,14.084 -6.64813,14.7015 -0.81789,0.2726 -0.3608,4.3378 1.58429,14.0902 2.29343,11.4989 2.67622,15.6585 2.37618,25.8212 l -0.35765,12.1142 -4.60875,4.1726 c -8.46263,7.6617 -13.70897,9.7785 -55.13661,22.2471 l -4.75,1.4297 -0.006,11.7112 c -0.003,6.4412 -0.68228,23.8613 -1.50841,38.7113 -2.70404,48.6063 -4.49175,77.9037 -5.09578,83.5108 l -0.59366,5.5107 7.43943,4.7127 c 44.12798,27.954 59.87453,48.1633 49.84731,63.9746 -5.49709,8.668 -22.45713,14.6734 -41.67353,14.7563 -33.58977,0.1448 -78.56164,-16.6125 -85.02824,-31.683 -1.85909,-4.3326 -1.76881,-21.0105 0.15798,-29.1846 0.83006,-3.5214 2.5903,-8.555 3.91167,-11.1857 2.29144,-4.5622 2.33754,-5.0289 0.99747,-10.0975 -3.84237,-14.5334 -9.43652,-73.2172 -10.15847,-106.5643 l -0.54664,-25.25 h -19.77755 -19.77755 l -0.59949,4.75 c -0.32972,2.6125 -1.06786,11.725 -1.6403,20.25 -1.15611,17.217 -10.43069,102.743 -11.80484,108.8588 -0.70869,3.1542 -0.38154,5.288 1.72733,11.2662 2.30536,6.5352 2.6032,8.9122 2.61562,20.875 0.0171,16.4601 -1.28285,20.6655 -8.46438,27.383 -8.80628,8.2372 -23.02516,16.5445 -35.02161,20.4612 -12.0048,3.9193 -34.34925,6.8787 -42,5.5625 z m 33,-10.8655 c 11.76213,-3.2354 19.9999,-7.026 30.60764,-14.0841 13.54089,-9.0098 16.42399,-15.605 15.03067,-34.3833 -1.02098,-13.7601 -0.92314,-13.6527 -6.96725,-7.6491 -10.74333,10.6712 -30.19963,17.9544 -48.17106,18.0321 -11.79164,0.051 -18.18809,-1.7861 -24.2315,-6.959 l -4.01292,-3.4349 -7.53349,8.6053 c -8.65457,9.886 -12.86178,17.4581 -13.4176,24.149 -0.50166,6.0389 1.06264,8.8949 7.08621,12.9376 8.07826,5.4216 12.29592,6.2948 28.1093,5.8199 11.06764,-0.3324 15.98981,-0.9678 23.5,-3.0335 z m 208.41244,-4.0403 c 8.72589,-1.8486 19.05337,-6.6343 20.61544,-9.553 1.47725,-2.7603 0.79607,-8.4027 -1.63657,-13.5562 -1.85454,-3.9288 -17.25886,-20.7153 -20.69937,-22.5566 -1.43722,-0.7692 -3.37212,-0.2058 -8.52555,2.4823 -9.39255,4.8993 -20.28266,7.1191 -31.0846,6.3361 -16.54203,-1.199 -35.83227,-8.2806 -45.33001,-16.6408 -2.53402,-2.2305 -4.81123,-3.7084 -5.06047,-3.2841 -1.34556,2.2904 -3.87006,16.6051 -3.85737,21.8724 0.019,7.8947 2.04948,12.5776 7.01232,16.1726 5.18666,3.7572 27.93461,13.6979 36.21393,15.8252 16.86954,4.3344 39.6342,5.5964 52.35225,2.9021 z m -205.7725,-41.4986 c 11.15464,-2.2599 23.40313,-7.7562 30.11008,-13.5113 2.3375,-2.0058 4.25,-4.0129 4.25,-4.4604 0,-2.6961 -16.13003,-6.0904 -38.37168,-8.0748 l -11.87168,-1.0592 -3.91405,2.7125 c -4.45985,3.0906 -15.84259,14.9409 -15.84259,16.4932 0,2.1562 2.17068,4.9346 4.99714,6.3962 7.4662,3.8609 16.75777,4.3169 30.64278,1.5038 z m 187.69897,-4.0279 c 6.72549,-2.5164 9.69451,-5.4061 7.59427,-7.3915 -3.89701,-3.6838 -18.6573,-12.6281 -21.81807,-13.2211 -4.68447,-0.8788 -20.85772,1.0468 -30.77857,3.6646 -10.10521,2.6665 -16.33652,4.9313 -16.33652,5.9376 0,1.6084 7.2731,6.2833 12.79461,8.224 8.30231,2.918 28.47944,5.8417 36.43031,5.2788 3.6987,-0.2619 9.14999,-1.3835 12.11397,-2.4924 z m -45.27541,-22.4755 c 5.19008,-1.4093 13.05055,-2.8329 17.46769,-3.1637 l 8.03117,-0.6014 1.76447,-34.6169 c 2.95905,-58.0534 4.64615,-94.3341 4.66,-100.2127 l 0.0132,-5.5957 -6.75,1.2725 c -8.07723,1.5228 -38.8603,5.0278 -52.5,5.9778 l -9.75,0.679 0.0141,7.1311 c 0.0491,24.7939 7.7783,111.7015 11.16825,125.5764 0.61205,2.5051 1.95089,6.2331 2.97521,8.2844 l 1.86238,3.7297 5.8035,-2.9491 c 3.19192,-1.622 10.04993,-4.1022 15.24002,-5.5114 z m -102.71785,-10.2489 c 2.14956,-17.6416 10.33081,-100.2398 11.40197,-115.1147 0.55066,-7.6469 0.48046,-11.4529 -0.21461,-11.6346 -0.56815,-0.1485 -9.14886,-1.0046 -19.06824,-1.9025 -9.91939,-0.898 -22.51939,-2.3202 -28,-3.1605 -5.48062,-0.8403 -12.05597,-1.7897 -14.6119,-2.1099 l -4.64714,-0.582 -0.75197,9.8771 c -0.84551,11.1057 0.32726,117.3996 1.37229,124.3771 l 0.67397,4.5 14.5,0.6686 c 15.34338,0.7075 27.68348,3.2 33.40578,6.7475 1.70182,1.055 3.35752,1.9555 3.67934,2.001 0.32181,0.046 1.33904,-6.1046 2.26051,-13.6671 z m 92.15437,-135.883 c 27.25364,-2.5738 53.0118,-7.6195 73.9797,-14.4917 14.12639,-4.6299 27.07533,-10.6903 30.37992,-14.2184 4.98618,-5.3234 3.97249,-20.9498 -3.351,-51.6569 -2.42669,-10.1751 -6.68594,-28.239 -9.465,-40.1421 -2.77907,-11.90311 -6.44154,-26.07811 -8.13883,-31.50001 -1.69729,-5.4219 -3.437,-10.983 -3.86603,-12.358 -0.42903,-1.375 -5.97908,-16.44997 -12.33346,-33.49997 -6.35438,-17.05 -11.87074,-32.27478 -12.25856,-33.83284 -0.81463,-3.27271 0.13337,-3.42043 -14.82328,2.30976 -18.18247,6.96606 -37.18391,10.33498 -67.67648,11.99894 -37.27328,2.03397 -88.15891,-3.75369 -114.38349,-13.00982 -4.84956,-1.71168 -9.13465,-2.74177 -9.52242,-2.28909 -0.38777,0.45268 -1.71821,3.29805 -2.95653,6.32305 -1.23832,3.025 -5.41359,13.15 -9.27838,22.5 -3.86478,9.35 -11.04122,27.06194 -15.94764,39.35987 -4.90643,12.2979 -9.66449,23.7729 -10.57349,25.5 -1.09686,2.084 -1.90601,7.1761 -2.40585,15.14011 -1.26203,20.1083 -7.37903,39.2188 -13.27031,41.4586 -1.92478,0.7318 -2.84522,3.187 -6.44752,17.1976 -2.31121,8.9891 -4.80719,19.8549 -5.54662,24.1461 l -1.34442,7.8022 3.11484,2.3613 c 8.55519,6.4857 28.56141,14.2287 52.04234,20.1419 45.89071,11.5567 110.65785,15.8039 164.07251,10.7594 z m -233.89971,-69.1323 c 2.25341,-1.5047 3.3226,-5.1882 4.81989,-16.6053 1.57251,-11.9907 4.41745,-20.8394 8.73176,-27.1588 2.31537,-3.3915 4.63012,-5.0219 5.66308,-3.989 0.29081,0.2908 9.9e-4,3.3931 -0.64406,6.8939 -1.29411,7.0234 -0.80322,11.2822 1.93079,16.7511 3.53762,7.0763 6.66648,5.6012 9.82765,-4.6335 2.20059,-7.1247 5.07195,-25.9782 5.06813,-33.27751 -0.002,-3.0166 1.07622,-7.2378 2.99138,-11.7157 1.64663,-3.85 5.98646,-14.875 9.64408,-24.5 3.65762,-9.62497 10.89415,-27.81106 16.08117,-40.41351 7.87135,-19.1243 10.16201,-25.9872 13.85166,-41.5 2.43139,-10.22255 4.42374,-19.09144 4.42744,-19.70865 0.004,-0.6172 -1.78031,-1.40795 -3.96448,-1.75721 -6.77158,-1.08282 -20.147,-5.66988 -28.82968,-9.88705 -4.77257,-2.31803 -8.64975,-3.64958 -9.12161,-3.13264 -3.66145,4.01116 -21.43977,60.00935 -35.12917,110.64993 -3.58544,13.26343 -4.86772,15.48733 -18.015857,31.24523 -10.87208,13.03001 -13.6209,16.92751 -17.82041,25.26681 -3.74838,7.4435 -4.79686,13.6321 -3.15329,18.6122 1.38222,4.1882 3.04124,4.7846 3.04124,1.0934 0,-6.402 7.44158,-22.4685 10.4068,-22.4685 1.05166,0 0.64084,2.2096 -1.71986,9.25 -5.07361,15.1313 -4.08178,30.3277 2.19878,33.6889 1.75662,0.9401 1.89313,0.3461 2.34855,-10.2204 0.35596,-8.2588 1.05451,-12.6695 2.64781,-16.7185 2.18935,-5.5636 5.72853,-10.7227 6.69378,-9.7574 0.28922,0.2892 -0.39703,4.1404 -1.525,8.5582 -2.54872,9.9824 -2.72518,22.4735 -0.39959,28.2857 0.97577,2.4387 2.91889,4.8999 4.749997,6.0165 3.4748,2.1189 3.66018,2.1593 5.19902,1.1318 z m 372.68519,-2.6235 c 3.95658,-3.6668 5.03265,-9.3902 4.34526,-23.1113 -0.33065,-6.6 -0.894,-13.575 -1.25191,-15.5 -0.64067,-3.4459 -0.61969,-3.4723 1.35744,-1.7106 3.30343,2.9434 6.33543,13.9245 6.41261,23.2247 0.0376,4.5245 -0.23591,9.1849 -0.60769,10.3562 -1.56231,4.9224 3.81716,0.9097 6.09773,-4.5485 2.8498,-6.8205 1.44651,-16.778 -4.41411,-31.3218 -1.66223,-4.125 -2.84104,-7.6892 -2.61958,-7.9206 0.22147,-0.2313 1.57099,0.6687 2.99895,2 2.96996,2.769 7.55741,11.3778 9.47174,17.7747 1.21171,4.049 1.36501,4.1891 2.18829,2 2.9987,-7.9736 -6.09854,-24.3781 -24.59683,-44.35411 -4.58384,-4.95 -8.80093,-9.9 -9.37132,-11 -1.0191,-1.9653 -3.62197,-12.4847 -12.80513,-51.75153 -5.27002,-22.5344 -19.87946,-74.53696 -21.3546,-76.0121 -0.64299,-0.64299 -2.04083,-0.22846 -4.04718,1.20019 -7.25811,5.16822 -26.06485,12.06347 -32.90304,12.06347 -3.12299,0 -2.90155,3.82978 1.36986,23.69137 2.9164,13.56092 5.44805,21.50564 14.07573,44.17176 16.28424,42.78104 19.87552,54.87044 31.30608,105.38685 1.2134,5.3625 2.61341,9.75 3.11114,9.75 2.56227,0 4.36196,-5.6119 4.89637,-15.2682 0.44025,-7.9549 0.90653,-10.2441 2.25977,-11.094 1.34543,-0.845 2.26269,-0.5506 4.34898,1.3957 5.73753,5.3526 9.72825,16.7946 10.97483,31.4665 0.37384,4.4001 1.09861,8.7876 1.6106,9.7501 1.29491,2.4343 4.10072,2.1835 7.14601,-0.6388 z M 321.10734,904.43765 c 25.14789,-2.23258 37.4301,-4.62336 57.75,-11.24125 l 11.25,-3.66396 -0.004,-6.55996 c -0.0104,-16.82263 -2.35987,-39.3309 -7.5069,-71.91796 -1.42103,-8.99691 -2.44123,-16.78539 -2.26711,-17.30775 0.17411,-0.52235 1.34144,0.43646 2.59404,2.1307 2.94618,3.98492 5.26121,13.21617 9.17697,36.59341 1.74503,10.4179 3.473,19.23142 3.83993,19.58558 0.89713,0.86592 9.30998,-1.40286 18.86377,-5.08719 7.98815,-3.08056 21.22586,-10.80541 27.04682,-15.78314 l 3.24345,-2.77361 -5.80506,-13.04766 c -16.09718,-36.18059 -39.56356,-64.45585 -62.4794,-75.28306 -7.13471,-3.37099 -23.97669,-8.77287 -30.47126,-9.77332 -3.71871,-0.57285 -4.18645,-0.44297 -3.62973,1.00784 0.3515,0.91598 0.0517,3.78735 -0.66623,6.38082 -1.70093,6.14449 -11.11693,15.76749 -19.11146,19.5316 -11.19685,5.27189 -26.86177,7.10952 -39.93727,4.68499 -13.77184,-2.55364 -30.46976,-15.08585 -36.17831,-27.15273 l -2.62938,-5.55806 -5.7894,0.88088 c -11.43929,1.74052 -21.97661,5.02444 -32.7894,10.21869 -24.3911,11.717 -40.89662,28.59834 -59.2607,60.61001 -6.09489,10.62443 -11.2393,21.76901 -11.2393,24.34826 0,3.21951 18.78118,15.16995 33,20.99785 10.04374,4.11665 20.91522,6.40911 22.00808,4.64082 0.39244,-0.63498 1.66714,-5.5043 2.83266,-10.82072 1.16553,-5.31641 3.74096,-17.07413 5.72318,-26.12825 3.45228,-15.76893 5.23555,-21.17796 7.42897,-22.53356 0.55391,-0.34234 1.0053,0.19163 1.00309,1.18659 -0.006,2.77551 -2.75326,19.40522 -5.50237,33.30901 -3.11716,15.76523 -4.14395,23.18369 -5.99834,43.33741 -1.96269,21.33074 -2.00967,20.5159 1.25473,21.761 5.6952,2.17225 19.72886,5.94488 29.10933,7.82538 32.11287,6.43764 64.34522,8.3353 95.14067,5.60134 z M 437.46425,755.96813 c 1.87019,-3.60558 3.95952,-8.35561 4.64296,-10.55561 2.03847,-6.56194 5.18541,-13.5 6.12327,-13.5 1.40042,0 1.01444,10.03781 -0.63602,16.53991 -0.83208,3.27805 -3.02643,9.05113 -4.87633,12.82907 l -3.36346,6.86897 4.23644,-0.58067 c 2.33005,-0.31937 6.8869,-1.56925 10.12634,-2.77752 8.16832,-3.04668 18.05806,-12.9746 21.29752,-21.37976 3.12907,-8.11874 3.8043,-21.11691 1.71088,-32.93457 -0.87048,-4.91401 -1.32186,-9.18901 -1.00306,-9.5 0.3188,-0.31098 1.9207,1.00957 3.55978,2.93457 7.24571,8.50967 12.82478,24.70078 12.82478,37.21898 0,4.07176 0.38685,6.65997 0.94397,6.31565 2.0889,-1.29101 11.00999,-15.79276 13.06071,-21.23096 2.75222,-7.29843 3.60268,-18.77417 2.06636,-27.8825 -1.3169,-7.80746 -4.44568,-15.77742 -14.87167,-37.88268 -3.88115,-8.22883 -8.5466,-19.47883 -10.36765,-25 -1.82105,-5.52117 -3.36056,-10.15837 -3.42112,-10.30491 -0.0606,-0.14653 -4.34023,1.07479 -9.51037,2.71405 -5.17013,1.63925 -11.5473,3.25065 -14.17149,3.58088 l -4.77125,0.60041 -4.10455,8.18554 c -6.70262,13.36677 -12.58082,21.67983 -21.72257,30.72048 -18.47673,18.27239 -47.37113,32.96053 -76.63924,38.9587 -13.91117,2.85094 -13.49348,2.65493 -13.47583,6.32375 0.0234,4.85962 1.10067,5.7088 8.57647,6.76043 14.67742,2.06471 32.89083,8.22189 43.19871,14.60366 8.22675,5.09331 25.48154,21.09782 32.36439,30.01928 l 4.17218,5.40792 5.31475,-5.24873 c 2.92311,-2.8868 6.84491,-8.19875 8.7151,-11.80434 z m -279.35691,13.3552 c 0,-0.32406 -1.98432,-2.51773 -4.40959,-4.87483 -5.02579,-4.88451 -7.3282,-8.88278 -9.23432,-16.03598 -1.69666,-6.36713 -1.66005,-11.32694 0.10703,-14.5 1.62932,-2.92569 1.9418,-2.3633 3.44946,6.20811 1.28517,7.30647 3.76429,12.10395 9.62087,18.61788 l 4.69459,5.22151 7.84765,-7.4976 c 13.55812,-12.95335 24.90609,-20.24434 40.85114,-26.24657 8.4275,-3.17237 29.53828,-8.30333 34.16322,-8.30333 5.13993,0 9.28049,-3.38749 8.40488,-6.87623 -1.01309,-4.03645 -2.06913,-4.77978 -8.62215,-6.06901 -22.94396,-4.51395 -52.55345,-19.59732 -69.56312,-35.43615 -12.14068,-11.30499 -25.07601,-30.39648 -29.40126,-43.39387 -1.71354,-5.14917 -2.42933,-6.22319 -3.76227,-5.6452 -0.90537,0.39258 -4.43525,0.92372 -7.84416,1.18031 -7.7508,0.5834 -17.94864,-2.31142 -25.10285,-7.12584 l -5.01127,-3.37234 -0.69009,4.60181 c -0.85846,5.72466 -4.742927,16.1728 -8.216397,22.09982 -1.44539,2.46636 -7.16952,11.03552 -12.7203,19.04257 -5.55078,8.00705 -11.31802,17.28948 -12.81609,20.62763 -3.53327,7.87315 -5.19215,19.40891 -3.72958,25.9352 2.15998,9.63823 11.51163,23.584 18.09911,26.99052 l 2.8855,1.49214 v -6.4603 c 0,-12.73676 6.37721,-36.44213 11.05177,-41.08162 l 3.032177,-3.00944 -0.79198,7 c -1.370547,12.11387 -0.826007,32.31682 1.06465,39.5 2.79463,10.61757 7.06385,18.60745 13.08202,24.48306 5.95015,5.80921 15.42677,11.02565 22.56136,12.41899 5.1614,1.00799 21,1.39171 21,0.50876 z m 154,-14.99646 c 10.32476,-3.06921 19.3192,-9.26337 22.56474,-15.53953 1.88214,-3.63967 1.91121,-9.87482 0.046,-9.87482 -0.76407,0 -2.37439,-0.79774 -3.57849,-1.77277 -1.73041,-1.40119 -2.22523,-2.94563 -2.36079,-7.36849 l -0.1715,-5.59572 -19.09017,0.51022 c -16.77905,0.44846 -40.20005,-0.74142 -46.94005,-2.38473 -1.82951,-0.44606 -2.0508,0.0293 -2.2385,4.80825 -0.17646,4.493 -0.6708,5.7234 -3.23556,8.05324 -1.665,1.5125 -3.69518,2.75 -4.5115,2.75 -2.21028,0 -1.81231,2.0923 1.34176,7.05422 6.34555,9.9827 19.33533,18.92273 30.35866,20.89391 7.06464,1.2633 20.98895,0.49549 27.81536,-1.53378 z m 8.64136,-47.94593 c 47.81724,-5.02153 77.40138,-17.79805 102.43316,-44.2379 22.29909,-23.55344 30.52286,-51.73273 32.46121,-111.23052 0.36733,-11.275 1.25154,-23.93573 1.96493,-28.13496 l 1.29706,-7.63497 -12.68135,-12.86503 c -23.54796,-23.88904 -34.73919,-44.8457 -41.51953,-77.74939 -2.23705,-10.85595 -2.24646,-10.87576 -3.6064,-7.59257 -2.39665,5.78601 -10.50048,17.37918 -17.09458,24.45511 -19.06865,20.46202 -54.3393,36.69127 -79.27685,36.47804 -6.25248,-0.0535 -15.00732,-2.8961 -15.39889,-4.99991 -0.1679,-0.90215 3.15526,-4.50455 7.99629,-8.6682 12.6086,-10.84436 17.2711,-16.32084 8.28359,-9.72974 -21.88821,16.05195 -65.51515,28.88614 -96.5,28.38839 l -13.5,-0.21686 -9.5,4.06225 c -5.225,2.23424 -12.65,4.83571 -16.5,5.78105 -8.33234,2.04593 -9.16372,2.6035 -10.05867,6.74589 -0.37797,1.7495 -3.29921,12.27847 -6.49166,23.39771 -8.28385,28.85257 -9.28269,34.32325 -9.36327,51.28319 -0.10764,22.65581 4.85782,45.95592 13.43178,63.02775 16.02903,31.91584 51.72514,57.13092 92.59121,65.40475 27.61345,5.59067 46.18095,6.64564 71.03197,4.03592 z M 291.60734,654.2663 c -16.17916,-2.60596 -32.34391,-11.10128 -38.25313,-20.10378 -0.84778,-1.29157 -2.49282,-2.25 -3.86188,-2.25 -3.20366,0 -3.22554,-3.91128 -0.0426,-7.61169 2.88708,-3.35643 5.65589,-2.70581 5.66132,1.33031 0.002,1.52976 0.83174,4.13138 1.84374,5.78138 2.21798,3.61626 14.14343,10.61768 24.34626,14.29367 6.40563,2.30789 8.78547,2.62615 19.30626,2.58182 13.7736,-0.058 22.48147,-1.82295 31.5296,-6.39043 10.15627,-5.12687 17.54221,-13.08246 16.35621,-17.61771 -0.38543,-1.4739 0.35525,-2.35031 3.08748,-3.65322 1.97701,-0.94277 3.7694,-1.71413 3.98308,-1.71413 0.21369,0 0.89337,1.5297 1.5104,3.39932 1.18302,3.5846 0.49957,8.60068 -1.17186,8.60068 -0.54355,0 -3.94694,2.71108 -7.56309,6.02463 -7.68595,7.04278 -18.26554,13.14553 -26.73182,15.42004 -6.06213,1.62863 -24.469,2.79998 -30,1.90911 z M 286.774,600.24586 c -1.14534,-1.14535 -0.73002,-6.31014 0.7353,-9.14376 3.57116,-6.90586 19.10239,-10.52373 27.2762,-6.35377 7.1467,3.64598 11.11146,9.97458 8.12184,12.96419 -1.91511,1.91511 -2.80337,1.43619 -4.39312,-2.36861 -1.77277,-4.24285 -6.16485,-6.43139 -12.90688,-6.43139 -8.03394,0 -15.5,4.66681 -15.5,9.68857 0,2.18218 -1.87215,3.10595 -3.33334,1.64477 z m -72.49839,-17.42508 c -5.3684,-2.72419 -8.59229,-7.47562 -10.79391,-15.90826 -1.59506,-6.10936 -1.59532,-6.95579 -0.004,-14.08419 1.33643,-5.98807 2.37004,-8.23978 4.91134,-10.69932 9.35937,-9.05826 22.51935,-7.34014 28.63534,3.73853 2.03069,3.67843 2.41667,5.75593 2.41667,13.00737 0,7.15183 -0.4415,9.59414 -2.57798,14.26081 -4.55555,9.95065 -14.04513,14.01966 -22.58708,9.68506 z m 15.12812,-29.00348 c 2.59126,-4.14144 -3.18094,-10.90534 -6.76678,-7.92935 -1.77745,1.47515 -1.99379,5.28873 -0.46235,8.15025 1.26927,2.37165 5.69155,2.23652 7.22913,-0.2209 z m 147.70412,29.97177 c -10.36023,-4.13118 -15.99045,-21.97906 -11.05636,-35.04882 6.62807,-17.55695 27.41124,-19.43558 33.734,-3.04929 2.24299,5.81302 2.44582,18.20688 0.38003,23.22156 -5.07565,12.32106 -14.39215,18.33196 -23.05767,14.87655 z m 14.41484,-31.78301 c 1.10052,-1.21606 1.60931,-3.11727 1.40498,-5.25 -0.26486,-2.7645 -0.7748,-3.39623 -2.94461,-3.64783 -3.29396,-0.38194 -5.87572,2.11195 -5.87572,5.67572 0,4.9836 4.17821,6.79911 7.41535,3.22211 z m -201.3623,-46.52961 c -1.61545,-1.9465 -0.13302,-4.54052 4.85046,-8.4875 11.66821,-9.2414 28.26829,-10.60813 37.2614,-3.06783 1.8343,1.53797 3.00047,3.13733 2.59149,3.55412 -0.40898,0.4168 -3.42425,-0.0538 -6.7006,-1.04582 -10.70867,-3.24232 -21.79374,-0.71288 -30.85089,7.0397 -4.47426,3.8298 -5.41922,4.09503 -7.15186,2.00733 z m 215.14419,-3.03762 c -10.23727,-8.08695 -19.39056,-10.21949 -27.98846,-6.52078 -7.69102,3.30859 -10.81355,1.313 -5.56158,-3.55437 7.83781,-7.26384 25.15562,-5.1115 37.49287,4.65978 3.09135,2.4484 3.90106,3.7207 3.6641,5.75745 -0.429,3.68747 -2.63129,3.58843 -7.60693,-0.34208 z m 58.27631,120.27467 c 13.3295,-3.34938 26.3707,-13.60012 32.00437,-25.15632 9.71653,-19.93127 4.81388,-44.54877 -9.99865,-50.20572 -7.99794,-3.05444 -21.92653,-0.0596 -22.92911,4.93015 -0.23549,1.172 -0.70441,7.50962 -1.04206,14.08359 l -0.61389,11.95267 5.90134,-5.62893 c 4.02235,-3.83667 7.03692,-5.84196 9.46784,-6.29801 4.16604,-0.78155 9.04099,1.14807 9.5477,3.77921 0.27676,1.43706 -0.42204,1.74623 -3.98777,1.76435 -7.99493,0.0406 -16.28408,5.09728 -19.89404,12.13606 -1.74576,3.40391 -8.5092,37.11397 -8.0477,40.11103 0.1165,0.75656 1.70797,0.51299 9.59197,-1.46808 z m -324.04498,-5.3724 c 0.86429,-0.86429 1.57143,-1.68164 1.57143,-1.81634 0,-0.13471 -0.47364,-2.91506 -1.05253,-6.17858 -1.44989,-8.17379 -2.93616,-12.55868 -4.02806,-11.88385 -0.50568,0.31253 -0.91941,-1.11625 -0.91941,-3.17506 0,-5.55084 -3.62746,-12.1241 -10.44007,-18.91828 -5.88955,-5.87363 -10.9065,-8.45647 -16.42595,-8.45647 -2.47624,0 -2.88288,-2.49864 -0.55219,-3.39301 0.86998,-0.33384 3.62166,-0.60699 6.11483,-0.60699 4.29851,0 4.94104,0.39704 12.41822,7.67342 4.33683,4.22038 7.87558,7.25788 7.86388,6.75 -0.0117,-0.50788 -0.64173,-6.47685 -1.40006,-13.26438 -1.57413,-14.08951 -2.71127,-16.05294 -11.96903,-20.66628 -10.93472,-5.44899 -20.16929,-1.4974 -25.723097,11.00724 -3.04033,6.84545 -3.79152,22.41886 -1.5108,31.32141 2.174,8.48594 5.40031,13.68627 13.045727,21.02778 8.44956,8.11369 16.83794,12.14895 25.25711,12.15003 4.28439,5.4e-4 6.66033,-0.48097 7.75,-1.57064 z m 7.11958,-97.01723 c 6.20469,-20.8436 8.28684,-26.06996 11.58132,-29.07 1.30379,-1.18727 6.87053,-3.82803 12.37053,-5.86836 13.36346,-4.95744 28.15047,-12.34088 36.32057,-18.13557 8.2553,-5.85511 28.32179,-25.27131 36.52094,-35.33742 7.51427,-9.22527 8.86577,-10.36443 9.96899,-8.40263 2.78914,4.95979 -23.79483,36.4399 -41.45691,49.09227 l -5.31907,3.81036 3.98274,0.34144 c 5.20275,0.44603 19.13389,-1.40799 33.37616,-4.44185 33.71412,-7.18173 55.219,-19.29448 84.85644,-47.79593 5.65993,-5.44299 10.51936,-9.66777 10.79874,-9.38839 0.65344,0.65344 -6.30831,13.79505 -13.28186,25.07198 -7.0663,11.42693 -14.48494,20.54766 -20.98329,25.7976 -2.8691,2.31791 -4.98557,4.58812 -4.70326,5.04492 0.78758,1.27432 15.13137,0.26741 22.41981,-1.57384 7.51079,-1.89743 29.54789,-12.47422 38.90627,-18.67322 13.78205,-9.12924 27.6919,-24.96627 34.66904,-39.47236 1.99069,-4.1388 4.83559,-12.47142 6.32201,-18.51691 1.48641,-6.0455 3.13009,-11.08218 3.65262,-11.19262 0.55449,-0.1172 1.22746,7.50192 1.6163,18.29918 0.91097,25.29529 3.57048,36.39234 13.53768,56.48706 8.08115,16.29229 17.26403,28.51106 35.06574,46.65859 l 8.4809,8.64565 -1.08167,9.85435 c -2.31998,21.13573 -2.34862,22.64414 -0.41457,21.8318 10.20014,-4.28425 11.91009,-4.67283 18.24568,-4.14629 3.575,0.29711 7.4483,0.82984 8.60733,1.18384 1.9274,0.58869 2.28377,-0.0675 4.17398,-7.68568 4.91941,-19.82678 6.59982,-33.46185 6.63401,-53.82932 0.0274,-16.31949 -0.33424,-21.33127 -2.21723,-30.72775 -3.70001,-18.46373 -12.55742,-41.70765 -20.72778,-54.39455 -11.39299,-17.69101 -30.951,-32.67852 -49.26765,-37.75432 -6.5819,-1.82394 -7.44126,-2.41883 -15.26198,-10.56507 -4.66012,-4.85408 -11.38469,-10.56147 -15.36402,-13.03999 -24.10455,-15.01349 -69.75324,-23.97249 -109.41905,-21.47455 -36.9533,2.32712 -65.32617,9.60033 -92.02594,23.59026 -16.13777,8.45574 -21.98894,12.76154 -40.50101,29.80413 -15.41154,14.18817 -28.11001,31.02062 -39.17791,51.93223 -16.18147,30.57315 -21.631187,69.79412 -15.75398,113.37961 l 0.57308,4.25 h 7.28117 c 4.93129,0 8.71158,0.61315 11.71335,1.89986 l 4.43218,1.89985 0.61879,-18.14985 c 0.91753,-26.91227 4.67047,-48.38276 11.58033,-66.25086 2.74558,-7.09973 9.94689,-17.72593 10.0607,-14.84548 0.0229,0.57943 -1.53877,5.74638 -3.47037,11.4821 -7.42288,22.04167 -11.59527,48.6196 -11.63794,74.13318 -0.0295,17.61526 -0.021,17.68342 2.80008,22.49719 l 2.82963,4.8284 1.34189,-6.49719 c 0.73804,-3.57346 3.76496,-14.63709 6.72649,-24.58585 z"
       id="path1" />
  </g>
  <g
     id="layer2">
    <path
       style="fill:#e9c6af;stroke-width:3.05368"
       d="m 403.0676,428.21272 c -14.38806,8.57569 -23.46152,25.12561 -39.54506,32.22709 -20.55865,12.12833 -48.02057,24.25676 -71.21638,13.47073 0.93925,-4.10113 1.36728,-9.66112 -5.11729,-6.13122 -18.55714,8.72875 -40.02375,9.13496 -58.24652,17.3678 -4.06392,6.34513 16.70961,8.15542 3.97813,11.17694 -12.81927,-0.34823 -24.92813,3.02007 -35.75547,9.42942 -10.67159,-2.87991 5.18647,-13.4212 9.76211,-14.63038 19.47557,-7.01956 -4.16504,-7.48691 -11.68854,-4.69624 -15.41171,3.07088 -33.20413,9.33342 -35.62166,27.3683 -12.20982,31.39363 -10.19584,66.34701 -7.29684,99.23068 16.50769,59.4299 79.3695,93.30486 138.2368,92.74014 53.8225,2.00914 114.44137,-11.65996 146.33974,-59.09004 22.15466,-39.31067 19.66057,-86.87255 23.3499,-130.37176 -23.4357,-23.6114 -44.0151,-50.90599 -51.86481,-83.6839 -1.02035,-2.0762 -2.67238,-4.58565 -5.31411,-4.40756 z m -14.82108,58.2346 c 10.04973,2.68572 24.77718,6.50823 29.24255,16.72962 -5.66021,7.42144 -15.67195,-5.8341 -22.93241,-6.78131 -7.86241,-2.48813 -16.15611,-0.25715 -24.0656,0.62624 5.24943,-4.29382 10.51098,-10.42317 17.75546,-10.57455 z m -1.97415,48.74552 c 29.2302,1.61936 23.36573,51.93897 -4.44334,49.65806 -17.77138,-6.30859 -20.23829,-36.65475 -5.25448,-47.27833 2.92139,-1.70076 6.34346,-2.38146 9.69782,-2.37973 z m -161.13519,0.0954 c 27.29749,2.35043 22.354,54.33628 -5.4334,49.16899 -19.85026,-7.14984 -18.56547,-49.32746 5.4334,-49.16899 z m 84.19085,46.88469 c 7.83257,-0.49445 20.45059,8.05275 18.0179,15.79324 -11.19245,0.0437 -18.8015,-18.79744 -28.43738,-3.7157 -3.82684,4.80155 -14.73236,9.70648 -10.2167,-0.70974 3.6166,-7.50981 12.97368,-10.43628 20.63618,-11.3678 z m 47.94633,35.74354 c 11.00928,9.85249 -8.18202,21.49475 -15.66799,27 -28.73909,18.54471 -73.00896,11.27878 -91.92645,-17.19483 2.05615,-8.37411 10.48388,-7.25079 11.69583,1.05567 23.92083,28.49096 78.24674,24.42283 94.24055,-10.25845 0.47938,-0.33355 1.05416,-0.64273 1.65806,-0.60239 z"
       id="face_g" />
    <path
       style="fill:#e9c6af;stroke-width:3.05368"
       d="m 302.7674,308.87475 c -60.01845,0.19294 -122.69902,22.41057 -158.86681,72.61751 -33.42251,39.62556 -46.785929,93.5536 -37.9821,144.32483 5.56793,5.07425 16.49679,5.40855 23.13519,6.00597 0.26738,-32.44096 1.26477,-68.43789 19.87873,-96.17296 6.38905,-4.05814 -1.33366,12.44232 -0.73403,13.47563 -6.66677,26.41819 -14.24193,54.80275 -9.59599,81.94584 8.64764,0.72241 9.16158,-15.78369 12.96023,-21.63817 4.03603,-10.67799 5.19622,-24.81536 19.09622,-26.88807 29.37518,-11.2927 54.20704,-30.60345 75.15627,-53.74811 2.25614,-3.00987 14.48612,-12.88672 10.43141,-2.9344 -7.51871,16.61582 -27.30291,26.83963 -32.83896,43.96819 20.29634,3.17219 41.38197,-7.44625 60.25049,-14.47515 22.26963,-9.64857 38.52494,-30.33779 58.33599,-42.04771 -4.16135,20.53873 -23.66812,35.26291 -30.93638,53.64811 19.75933,0.20667 39.2662,-11.73025 55.56858,-22.52684 21.79526,-15.27604 35.3159,-39.44921 41.91055,-64.40159 6.05691,9.01275 1.14522,25.2139 5.54075,36.32207 4.31286,35.7154 28.71178,62.82972 50.80914,89.18886 8.65409,9.19112 -3.27348,24.21847 3.90657,32.33798 10.44978,-4.14927 28.6609,1.70458 29.59441,-14.74354 14.21359,-57.0057 2.36792,-128.7513 -50.7495,-161.90457 -29.00554,-11.78322 -49.79521,-38.93876 -81.75744,-45 -20.51705,-5.58497 -41.88727,-7.64872 -63.11332,-7.35388 z"
       id="hair_g" />
    <path
       style="fill:#e9c6af;stroke-width:3.05368"
       d="m 105.65606,619.95626 c -5.05951,5.14054 -4.12687,15.75961 -10.115306,21.52485 -10.853839,22.80852 -37.828704,47.69527 -24.763418,74.89861 2.608627,3.90698 10.767439,21.21 14.588469,10.01988 3.861663,-13.15958 5.007269,-31.98015 14.439365,-41.02187 4.09228,25.97461 -4.029084,63.1292 25.06759,77.37972 9.09494,2.84785 21.6875,9.98094 30.44135,5.78529 -5.85838,-9.94566 -18.92757,-25.42523 -9.69781,-36.50099 7.05757,7.56403 4.98667,27.18694 18.02386,27.4831 21.53282,-19.94788 48.51767,-32.09334 77.14115,-38.0338 4.85685,-0.44872 14.33304,-6.00782 5.45726,-9.14314 -28.89588,-12.38631 -60.92398,-22.36666 -80.24255,-49.15706 -12.63375,-9.841 -13.92882,-29.74315 -27.90656,-37.29423 -10.90333,-1.77247 -21.88884,-2.53311 -32.4334,-5.94036 z"
       id="path4" />
    <path
       style="fill:#e9c6af;stroke-width:3.05368"
       d="m 481.18688,711.8827 c -9.01396,4.30422 6.01326,15.79623 4.84294,4.33002 -0.81445,-1.94878 -2.52861,-4.28511 -4.84294,-4.33002 z"
       id="path5" />
    <path
       style="fill:#e9c6af;stroke-width:3.05368"
       d="m 473.79125,628.06759 c -16.38086,-0.54437 -27.49044,11.66014 -33.22067,25.60438 -22.4398,32.79021 -60.74114,48.66643 -97.44334,59.62425 -11.27728,5.0775 7.71189,10.09709 12.02181,11.62473 26.74801,7.01917 52.49643,22.87605 67.3261,45.76891 14.01657,-8.51837 16.4204,-26.57966 26.0159,-37.7833 5.02206,9.14315 -8.72918,24.70913 0.9006,31.12724 25.3179,-5.17389 29.58055,-35.57016 26.41551,-56.98211 -1.11762,-14.81572 7.16645,1.85843 9.03578,6.02982 6.00049,5.66626 3.67239,23.41314 13.7177,22.9503 19.36715,-21.3013 3.15887,-52.54301 -5.86759,-74.81585 -6.1013,-10.05015 -7.48303,-24.68567 -14.63738,-33.12451 -1.40755,-0.23254 -2.85187,-0.13358 -4.26442,-0.0239 z"
       id="path6" />
    <path
       style="fill:#e9c6af;stroke-width:3.05368"
       d="m 239.24254,731.17694 c -40.90407,6.25484 -74.89606,35.7913 -92.6208,72.45258 -4.01666,8.35856 -16.28221,23.12535 -1.90603,28.45 13.38172,6.328 27.77878,19.41459 43.22266,16.65805 10.15747,-16.56284 7.78094,-42.48435 18.62624,-56.55268 -1.11274,31.88478 -11.81069,63.7111 -10.47912,95.52883 55.02975,21.85461 117.70327,20.95949 174.69185,6.76342 18.75734,-0.0202 19.85484,-14.02014 17.50435,-28.99273 -0.6423,-24.35525 -7.84901,-48.86424 -8.15246,-72.77467 15.5793,13.87029 6.0184,41.17208 20.45129,55.84294 13.97988,0.94839 26.95494,-10.0328 38.54075,-17.04572 6.79245,-12.03863 -8.24516,-24.39761 -11.70775,-35.5169 -16.816,-29.08468 -42.877,-60.22686 -78.81113,-62.32008 -11.00366,6.92633 -15.06747,23.09759 -29.74354,25.59841 -25.94247,7.60997 -59.69878,2.31791 -72.37575,-24.2326 -1.24076,-2.83388 -4.21452,-4.33253 -7.24056,-3.85885 z"
       id="shirt_g" />
    <path
       style="fill:#e9c6af;stroke-width:3.05368"
       d="m 193.96819,898.43141 c -13.99491,12.43752 -16.84351,34.30257 -25.50298,50.57058 -13.73469,29.92233 -19.07853,62.48651 -29.23062,93.41751 -9.99534,16.1545 -14.0197,36.0846 -16.78926,54.4294 77.11465,37.0723 166.63311,39.1526 249.92445,26.7793 24.68576,-5.5327 52.52517,-9.3481 72.72167,-25.3658 4.85724,-27.455 -7.90411,-55.0366 -12.89009,-81.8642 -11.4538,-38.97761 -19.60124,-80.04533 -38.16359,-116.26699 -17.48258,-2.01499 -33.91249,10.96581 -51.85884,9.46521 -49.28567,0.40707 -101.05709,5.21178 -148.21074,-11.16501 z"
       id="shirt2_g" />
    <path
       style="fill:#e9c6af;stroke-width:3.05368"
       d="m 148.69384,848.27237 c -18.46961,38.63557 -25.19102,82.51751 -42.11332,121.80715 -4.91918,13.40513 -21.133137,23.63752 -21.840957,37.67598 3.348667,5.0729 4.528302,12.4482 13.1332,7.9562 4.214557,12.4341 -8.300871,33.3494 5.588467,41.6601 11.02231,-6.9295 6.24143,-25.2334 13.22267,-35.7197 0.9879,-5.1145 10.60654,-14.7703 10.12723,-4.1034 -3.69265,6.2171 3.15465,20.317 8.87476,10.2227 9.80094,-55.80516 38.55686,-106.25925 50.93439,-161.38571 0.0787,-11.1805 -17.768,-9.31765 -24.7336,-14.40955 -4.36154,-1.20979 -8.6515,-3.32364 -13.19284,-3.70377 z"
       id="path9" />
    <path
       style="fill:#e9c6af;stroke-width:3.05368"
       d="m 430.5507,849.13718 c -10.35619,5.48825 -26.87962,4.94617 -32.95825,15.75745 9.59312,49.22645 31.80389,95.60801 43.07356,144.54277 1.4922,4.2562 5.24763,22.0504 11.55268,15.3638 -1.2833,-5.9319 3.82881,-14.5783 8.96421,-7.0557 9.87748,9.7653 5.72422,27.285 15.10139,36.179 11.02413,-8.3148 0.5483,-28.8073 8.24851,-37.9444 7.4447,1.5822 2.26217,-11.9496 9.32207,-9.2624 -10.14809,-17.11394 -27.5103,-30.41577 -29.55037,-51.77551 -11.46481,-34.28423 -14.95878,-71.73042 -30.45559,-104.41535 -0.85055,-0.88102 -2.05582,-1.46777 -3.29821,-1.38966 z"
       id="path10" />
    <path
       style="fill:#e9c6af;stroke-width:3.05368"
       d="m 196.91451,1133.3857 c -6.02721,7.6324 -1.31717,22.4016 -3.3102,32.141 -0.002,33.9022 -0.43382,68.5048 1.74161,101.9405 16.64498,0.1832 33.41906,5.5422 49.27635,7.5268 9.42853,-43.8135 9.13332,-90.186 16.27037,-134.8031 -20.47783,-3.7436 -42.67085,-5.7271 -63.97813,-6.8052 z"
       id="leg_g" />
    <path
       style="fill:#e9c6af;stroke-width:3.05368"
       d="m 374.74354,1133.1769 c -19.98326,3.9857 -41.20897,3.2625 -60.75746,6.7814 3.53177,46.2855 5.59817,93.2375 14.30219,138.7693 10.36275,5.5279 22.77871,-6.2271 33.87077,-6.5189 9.51924,1.5177 15.17035,-5.5571 13.87277,-14.8389 2.05938,-41.8538 6.04879,-85.0057 6.26839,-126.0895 -2.51889,0.6322 -5.03777,1.2644 -7.55666,1.8966 z"
       id="leg2_g" />
    <path
       style="fill:#e9c6af;stroke-width:3.05368"
       d="m 197.90457,1276.3181 c -9.346,0.7132 -24.866,11.2163 -19.37773,21.7038 19.21187,9.5329 43.5437,-0.051 60.49503,-10.9026 5.56741,-7.1429 -11.68668,-6.7673 -15.60835,-8.2485 -8.45075,-1.1898 -16.95418,-2.614 -25.50895,-2.5527 z"
       id="path13" />
    <path
       style="fill:#e9c6af;stroke-width:3.05368"
       d="m 248.27236,1291.0974 c -22.13037,17.7982 -52.32631,22.6852 -78.9662,13.0497 -11.64682,3.2622 -18.86781,18.2061 -20.00397,29.678 5.53597,19.9121 32.77177,17.0421 48.65606,13.9025 24.84673,-4.5644 58.29192,-20.3814 53.00398,-50.8031 -0.55242,-1.5638 0.31565,-6.6861 -2.68987,-5.8271 z"
       id="shoes_g" />
    <path
       style="fill:#e9c6af;stroke-width:3.05368"
       d="m 371.84493,1279.002 c -7.56784,1.7865 -25.54211,0.6791 -25.61034,11.3081 12.34791,11.8394 33.14435,7.5682 48.85885,6.5547 12.18204,-3.1144 -2.53867,-15.3254 -8.90457,-15.9781 -4.5515,-1.8232 -9.49065,-2.2045 -14.34394,-1.8847 z"
       id="path15" />
    <path
       style="fill:#e9c6af;stroke-width:3.05368"
       d="m 323.87475,1292.5706 c -7.61674,6.3156 -4.161,21.863 1.14513,29.2067 29.36631,19.4578 70.32112,30.3179 103.56859,14.7973 13.78753,-10.3915 -4.68911,-25.8016 -11.80318,-33.9006 -9.1546,-9.9593 -20.46437,5.9313 -31.36581,3.1013 -22.27593,2.585 -41.24795,-6.5879 -61.54473,-13.2047 z"
       id="shoes2_g" />
    <path
       style="fill:#e9c6af;stroke-width:3.05368"
       d="m 766.4672,285.36382 c -63.01194,-1.04667 -125.12565,25.17304 -171.27436,67.25845 -2.83612,9.29685 23.36226,4.63314 10.70222,12.87935 -32.17179,27.2132 -51.86143,70.27295 -42.16941,112.48248 5.23826,18.14936 6.55423,41.42188 21.63817,54.33399 5.02732,2.06825 14.12948,2.82214 8.67793,-5.50497 -8.37434,-26.93785 -13.73313,-56.89318 -7.75348,-84.50696 7.65988,18.18896 1.37017,41.59825 11.99404,58.17495 11.33062,-6.74596 11.2313,-24.96755 19.96819,-34.9324 15.69157,-24.39235 39.35183,-45.8708 64.77137,-58.19881 -0.58917,14.06999 -16.53014,24.95933 -16.41948,38.3499 27.47171,-6.48459 48.57267,-30.07773 74.31411,-40.25248 -2.37904,15.46724 -17.36603,28.11831 -17.59443,43.29423 18.9953,2.16334 37.00344,-11.62892 54.15507,-18.53082 12.85538,-5.59019 24.51301,-15.14993 34.9503,-23.14115 7.26505,10.94026 -11.20022,23.80955 -8.58847,35.48708 18.78056,-2.00021 34.84399,-17.33869 49.06163,-29.13519 5.305,-4.25222 10.88949,-14.477 17.29024,-14.92246 5.63132,24.47351 12.02438,50.01429 29.71198,69.17108 18.8579,16.96796 14.30493,45.13911 22.94607,66.01381 22.52442,3.69736 28.427,-22.931 32.77339,-39.27436 5.7087,-16.4996 0.20032,-34.44809 1.09144,-50.55865 3.69538,4.94352 14.9142,14.39107 15.02385,1.64613 -0.6704,-38.94654 -26.9374,-74.07735 -58.12126,-95.02784 -8.27247,-5.0794 3.63992,-8.29618 7.47315,-10.80715 3.57442,-8.16549 -12.59676,-2.78266 -16.16898,-3.07157 -6.20572,2.12868 -9.55359,-0.70555 -10.8012,-6.04772 -14.78386,2.15814 -22.69441,-13.85928 -33.69781,-21.29224 -26.49819,-20.57142 -61.53933,-24.17595 -93.95427,-23.88668 z"
       id="hair_b" />
    <path
       style="fill:#e9c6af;stroke-width:3.05368"
       d="m 864.80517,417.88867 c -23.54906,17.07103 -50.55787,39.89972 -81.51889,35.27833 -1.3602,-5.17604 12.86837,-14.80925 4.92048,-16.58648 -24.75034,8.60033 -49.72109,24.35927 -76.62823,22.00795 -11.7387,-4.69208 0.89097,-16.20123 3.62028,-22.87276 -6.7177,-3.32535 -16.85689,6.94316 -24.13121,8.44532 -12.89388,3.80155 -26.12539,17.94225 -40.13917,14.52287 -2.09936,-4.64384 -4.799,-14.6893 -11.18887,-7.68191 -40.39656,39.78259 -34.7962,102.27597 -25.87276,153.29224 6.86344,45.25792 46.24511,80.78819 90.1951,89.80381 55.98117,16.721 123.13977,11.60036 169.51067,-26.4877 26.23267,-22.80848 39.10608,-57.80018 36.51809,-92.22255 0.92276,-37.59557 4.90466,-80.82901 -23.25368,-110.51304 -11.22185,-13.63577 -15.3829,-31.67092 -21.76342,-47.02187 z m -22.6342,62.13519 c 9.55153,0.57676 28.23143,2.9634 26.58251,15.7157 -8.35303,3.40563 -13.2641,-9.85837 -22.71173,-7.64612 -5.8309,-1.37647 -17.86095,1.79019 -20.39165,-3.87078 4.63168,-3.47845 10.90298,-4.13936 16.52087,-4.1988 z m -160.47316,0.67395 c 4.83762,-2.2147 20.10898,5.49189 9.88271,7.81909 -12.90603,-2.53479 -25.04,1.82081 -35.74354,8.13519 -9.7087,1.19117 0.88885,-10.67094 5.29622,-11.56461 6.39386,-3.11308 13.54072,-4.35644 20.56461,-4.38967 z m 159.54871,48.78132 c 28.31721,4.91009 18.24209,57.48895 -9.73956,51.96023 -20.39362,-9.52673 -15.41206,-52.49407 9.73956,-51.96023 z m -159.84692,1.74155 c 19.26872,-1.20407 17.71504,22.87496 15.34593,35.52286 1.04689,18.31136 -25.27456,20.42607 -31.6342,5.80914 -6.02007,-14.59065 -6.3166,-43.22157 16.28827,-41.332 z m 77.36779,45.37574 c 4.76901,-2.36455 19.3516,6.38766 9.33997,8.21273 -8.80007,-3.06834 -21.33948,-1.67348 -21.19682,10.27037 -1.59426,11.75713 -10.96644,-9.16096 -3.41154,-12.44731 3.44208,-4.80179 9.68951,-6.13207 15.26839,-6.03579 z m 60.47714,43.92644 c 3.93512,6.29959 -8.42835,12.60964 -12.38171,16.96819 -27.92084,24.8749 -74.16281,23.90746 -99.31014,-4.4493 -7.76136,-3.5201 -3.69871,-13.68621 3.47714,-7.19284 20.44699,22.94044 56.21916,29.14781 82.53877,12.34592 10.0012,-3.92094 14.4358,-16.7347 25.67594,-17.67197 z"
       id="face_b" />
    <path
       style="fill:#e9c6af;stroke-width:3.05368"
       d="m 582.51292,541.1332 c -17.35467,5.06516 -16.27129,29.15661 -14.12922,43.47912 7.01297,13.8231 21.41071,25.28795 32.46322,33.8171 2.32647,-18.55293 4.20071,-45.29295 -17.13519,-53.62425 -8.77512,-7.7672 9.04274,-3.29615 13.0676,-3.40557 8.54722,-7.75545 -4.50517,-22.46352 -14.26641,-20.2664 z"
       id="path19" />
    <path
       style="fill:#e9c6af;stroke-width:3.05368"
       d="m 940.71769,540.19682 c -8.22354,1.35859 -23.57238,12.87724 -17.37375,21.44135 7.87185,-0.0897 18.62192,-7.65935 25.31212,-3.35189 -10.72258,6.39905 -24.20396,11.80699 -26.15308,26.3499 -1.25349,9.12487 -6.77074,22.0775 -1.22266,29.95229 26.21821,-8.41578 46.2799,-41.24438 33.76938,-67.56262 -2.98701,-4.79263 -8.66784,-7.76048 -14.33201,-6.82903 z"
       id="path20" />
    <path
       style="fill:#e9c6af;stroke-width:3.05368"
       d="m 704.02783,726.01789 c -33.60692,7.40268 -60.66944,31.24097 -77.7495,60.50696 -13.20062,19.77618 -25.2669,41.05303 -34.23459,62.70179 14.64486,9.06859 30.62821,23.44575 48.69781,22.49702 8.96594,-9.86942 2.76515,-26.57675 7.67745,-38.53188 3.98467,-16.48999 3.85358,-36.44035 11.39611,-50.87766 1.07433,38.3213 -8.37978,76.84629 -10.69098,115.2673 -2.29972,29.50448 -7.72157,59.58914 -7.98894,88.84602 40.51899,17.19496 86.41945,18.64026 130.03037,18.26406 34.96788,-2.0035 71.43338,-4.6747 104.1247,-17.5245 -2.41225,-63.95688 -16.43862,-127.67221 -18.59046,-191.70775 5.34223,-0.95485 3.81961,12.44353 5.74041,16.18777 5.29176,19.81067 2.55874,43.13731 12.43255,61.26352 20.0694,-0.071 38.5297,-13.52524 56.24852,-22.18688 10.87955,-5.12769 -5.46383,-16.94914 -5.55864,-23.96422 -21.29266,-40.38641 -45.85342,-89.07188 -95.28665,-98.77599 -13.92459,-5.30309 -19.16742,16.77679 -31.29786,21.71834 -22.68165,13.33293 -53.41155,12.90518 -76.66998,2.15905 -11.42688,-4.55636 -9.16383,-21.02998 -18.28032,-25.84295 z"
       id="shirt_b" />
    <path
       style="fill:#e9c6af;stroke-width:3.05368"
       d="m 648.76938,1001.493 c -6.06471,39.9359 -5.31268,82.0528 -6.46521,122.8629 -1.47216,14.1946 19.67302,10.4066 28.44898,13.3231 22.36375,0.5707 46.97445,5.6125 68.21902,-2.4802 11.8782,-18.2785 5.1898,-43.0568 9.21442,-63.7138 6.92608,-15.8215 -6.97377,-16.4183 -16.8009,-22.3081 -2.19362,-6.4494 12.96069,-2.1444 16.43141,-1.7713 17.11058,0.3032 10.67604,22.8242 15.01226,33.6802 5.04547,18.8417 1.07622,43.0114 14.45096,58.4788 28.10635,4.9028 57.83583,0.066 85.84294,-4.7714 19.62819,-2.4893 12.29317,-27.3458 12.32109,-40.6307 -3.45276,-30.4954 -3.40022,-62.9573 -9.3688,-92.3593 -58.31134,13.8598 -119.3315,10.8035 -178.69406,6.8588 -13.16736,-0.768 -25.59459,-5.8101 -38.61211,-7.169 z"
       id="pant_b" />
    <path
       style="fill:#e9c6af;stroke-width:3.05368"
       d="m 667.95626,1147.4553 c 1.92496,26.6732 -3.63247,54.7445 2.82108,80.7495 15.77192,10.1545 37.39363,4.0323 55.1332,6.2803 2.05805,-26.6138 5.49438,-55.9386 3.41749,-82.5447 -20.21613,-2.4398 -41.56237,-4.6805 -61.37177,-4.4851 z"
       id="leg_b" />
    <path
       style="fill:#e9c6af;stroke-width:3.05368"
       d="m 824.94036,1149.2863 c -9.9943,1.9256 -22.79044,-0.3843 -31.53877,4.1034 2.32798,28.2871 4.671,57.4244 11.42147,84.7872 16.94533,2.8516 36.25637,4.6767 52.66402,-1.1212 6.60513,-18.5206 -0.6957,-40.0869 0.0787,-59.5388 0.4697,-18.9372 0.16373,-38.5536 -24.44788,-28.7811 -2.72583,0.1835 -5.45166,0.367 -8.17749,0.5505 z"
       id="leg2_b" />
    <g
       id="g35">
      <g
         id="g36">
        <g
           id="g37">
          <path
             style="fill:#e9c6af;stroke-width:3.05368"
             d="m 634.30616,1294.2883 c -15.7555,2.6219 -29.48414,16.1266 -36.4831,29.833 3.63368,12.5873 22.761,10.5951 33.30418,12.6083 13.13801,-0.7893 29.53269,3.0087 40.89662,-3.9125 1.62636,-22.3971 -16.62502,-37.4472 -37.7177,-38.5288 z"
             id="path25" />
        </g>
      </g>
    </g>
    <path
       style="fill:#e9c6af;stroke-width:3.05368"
       d="m 661.84891,1237.163 c 0.54857,9.9545 -5.03539,32.37 12.87077,27.9841 17.4904,1.7084 36.86138,19.9198 53.85686,7.5626 4.10124,-9.62 -0.69151,-21.3471 -2.17694,-30.662 -21.54232,0.4789 -44.26434,0.1397 -64.55069,-4.8847 z"
       id="path26" />
    <path
       style="fill:#e9c6af;stroke-width:3.05368"
       d="m 674.94632,1272.6203 c -10.48602,3.4332 5.82471,18.3371 12.04772,14.5169 4.44709,8.6565 -2.65144,22.2878 -13.15706,17.0278 -2.10022,8.2692 3.65661,19.6436 7.45527,27.2624 17.27589,-1.4315 38.68392,-6.4076 49.57455,-21.4592 3.3486,-7.5173 5.31612,-20.346 -0.61431,-26.1948 -13.43472,1.2912 -28.27382,6.2329 -39.07754,-5.4096 -4.94505,-2.8229 -10.38853,-5.7298 -16.22863,-5.7435 z"
       id="path27" />
    <path
       style="fill:#e9c6af;stroke-width:3.05368"
       d="m 831.85288,1246.3897 c -14.58073,1.2841 -41.54827,-6.8895 -30.67395,16.3956 0.76228,6.2442 -0.80992,21.2154 10.34194,16.6401 15.92626,-8.8863 34.50324,-8.9407 51.38171,-13.7654 3.96226,-7.217 5.53097,-24.9021 -7.87847,-19.4413 -7.72375,0.057 -15.44749,0.114 -23.17123,0.171 z"
       id="path28" />
    <path
       style="fill:#e9c6af;stroke-width:3.05368"
       d="m 877.16302,1304.8688 c -19.71117,0.1919 -48.31493,5.4069 -50.6004,29.505 3.50753,14.2133 24.53066,7.4143 34.84295,9.7276 14.77837,-1.9835 34.62543,1.7474 46.33002,-8.5229 -4.86642,-11.92 -14.97273,-32.1845 -30.57257,-30.7097 z"
       id="path29" />
    <path
       style="fill:#e9c6af;stroke-width:3.05368"
       d="m 608.37376,874.6163 c -8.95672,8.15831 -7.50733,25.00689 -11.92247,36.25646 -8.19738,34.81466 -9.4948,71.26724 -26.61232,103.43144 -5.1711,7.6879 -3.38463,22.033 8.13519,16.6998 3.53014,13.6032 -0.9876,34.7239 13.39562,43.0497 9.51298,-10.4793 1.2695,-28.5775 5.3678,-41.6064 -0.41926,-8.147 8.48619,-11.5836 11.20079,-2.3558 4.01351,4.199 5.21757,20.3625 12.69185,16.3777 5.75693,-31.041 -2.81136,-64.31543 9.9006,-94.4016 6.50939,-21.88618 10.77997,-45.0528 9.50099,-67.72366 -10.37894,-3.41134 -20.50612,-9.3479 -31.65805,-9.72764 z"
       id="path30" />
    <path
       style="fill:#e9c6af;stroke-width:3.05368"
       d="m 280.39563,714.59642 c -8.1661,0.20386 -19.83148,-1.30357 -21.11332,9.36382 -12.12911,11.10433 7.16124,22.35629 16.2167,26.63618 18.92791,8.71414 48.72538,4.90501 57.62028,-15.81113 -1.26052,-5.94188 -5.35727,-11.45195 -7.21671,-17.14712 -14.26831,-4.73263 -30.66638,-2.21094 -45.50695,-3.04175 z"
       id="path31" />
    <path
       style="fill:#e9c6af;stroke-width:3.05368"
       d="m 744.55467,711.65606 c -7.96684,0.0926 -18.68333,-0.67509 -21.04175,8.46919 -15.18055,6.39471 0.295,24.83888 10.03181,28.68787 26.22751,7.8519 61.70282,3.44147 76.65805,-21.91252 -14.84912,-22.70228 -43.13428,-13.1287 -65.64811,-15.24454 z"
       id="path32" />
    <path
       style="fill:#e9c6af;stroke-width:3.05368"
       d="m 477.99602,546.11332 c -11.77728,-0.69862 -19.85135,16.71989 -11.76143,24.04771 5.46576,-2.31395 21.00477,-7.77141 20.96422,1.64613 -16.65588,0.24776 -27.58051,16.04477 -28.78831,31.83184 1.22777,4.74947 -9.74725,21.6862 1.4722,19.25166 24.12342,-5.84456 43.09433,-29.00041 38.30815,-54.38768 -0.88541,-9.94622 -10.11513,-21.31592 -20.19483,-22.38966 z"
       id="path33" />
    <path
       style="fill:#e9c6af;stroke-width:3.05368"
       d="m 110.6004,542.78529 c -19.678007,3.62613 -17.882379,30.72932 -15.28032,45.67992 8.48802,13.39802 22.81354,32.40398 40.9503,28.31213 6.00064,-17.60209 -6.65332,-40.61146 -24.22664,-47.42147 -5.50955,-1.66427 -11.309,-8.08232 -0.82903,-6.64414 7.71158,-2.51325 11.83995,5.22326 17.86282,5.7495 10.17645,-10.10337 -7.58108,-26.85958 -18.47713,-25.67594 z"
       id="path34" />
  </g>
  <g
     id="layer1" />
</svg>
